<!DOCTYPE svg PUBLIC "-//W3C//DTD SVG 1.1//EN" "http://www.w3.org/Graphics/SVG/1.1/DTD/svg11.dtd">
<!-- Uploaded to: SVG Repo, www.svgrepo.com, Transformed by: SVG Repo Mixer Tools -->
<svg fill="#000000" version="1.1" id="Capa_1" xmlns="http://www.w3.org/2000/svg" xmlns:xlink="http://www.w3.org/1999/xlink" viewBox="0 0 60 60" xml:space="preserve" width="800px" height="800px" transform="rotate(0)">
<g id="SVGRepo_bgCarrier" stroke-width="0"/>
<g id="SVGRepo_tracerCarrier" stroke-linecap="round" stroke-linejoin="round"/>
<g id="SVGRepo_iconCarrier"> <g> <g> <path d="M59,46.5h-6v-5c0-0.6-0.4-1-1-1h-6v-3h8c0.6,0,1-0.4,1-1v-10c0-0.6-0.4-1-1-1h-8v-5c0-0.6-0.4-1-1-1H31v-4h8 c0.6,0,1-0.4,1-1v-10c0-0.6-0.4-1-1-1H21c-0.6,0-1,0.4-1,1v10c0,0.6,0.4,1,1,1h8v4H15c-0.6,0-1,0.4-1,1v5H6c-0.6,0-1,0.4-1,1v10 c0,0.6,0.4,1,1,1h8v3H8c-0.6,0-1,0.4-1,1v5H1c-0.6,0-1,0.4-1,1v8c0,0.6,0.4,1,1,1h14c0.6,0,1-0.4,1-1v-8c0-0.6-0.4-1-1-1H9v-4h20 v4h-6c-0.6,0-1,0.4-1,1v8c0,0.6,0.4,1,1,1h14c0.6,0,1-0.4,1-1v-8c0-0.6-0.4-1-1-1h-6v-4h20v4h-6c-0.6,0-1,0.4-1,1v8 c0,0.6,0.4,1,1,1h14c0.6,0,1-0.4,1-1v-8C60,46.9,59.6,46.5,59,46.5z M14,48.5v6H2v-6H14z M53,27.5v8H37v-8H53z M22,13.5v-8h16v8 H22z M7,35.5v-8h16v8H7z M36,48.5v6H24v-6H36z M44,40.5H16v-3h8c0.6,0,1-0.4,1-1v-10c0-0.6-0.4-1-1-1h-8v-4h28v4h-8 c-0.6,0-1,0.4-1,1v10c0,0.6,0.4,1,1,1h8V40.5z M58,54.5H46v-6h12V54.5z"/> <rect x="25" y="8.5" width="2" height="2"/> <rect x="29" y="8.5" width="2" height="2"/> <rect x="33" y="8.5" width="2" height="2"/> <rect x="10" y="30.5" width="2" height="2"/> <rect x="14" y="30.5" width="2" height="2"/> <rect x="18" y="30.5" width="2" height="2"/> <rect x="40" y="30.5" width="2" height="2"/> <rect x="44" y="30.5" width="2" height="2"/> <rect x="48" y="30.5" width="2" height="2"/> <rect x="51" y="50.5" width="2" height="2"/> <rect x="29" y="50.5" width="2" height="2"/> <rect x="7" y="50.5" width="2" height="2"/> </g> </g> </g>
</svg>