<svg xmlns="http://www.w3.org/2000/svg" version="1.1" xmlns:xlink="http://www.w3.org/1999/xlink" xmlns:svgjs="http://svgjs.dev/svgjs" width="2000" height="2000" viewBox="0 0 2000 2000"><g transform="matrix(1,0,0,1,0,5.684341886080801e-13)"><svg viewBox="0 0 280 280" data-background-color="#ffffff" preserveAspectRatio="xMidYMid meet" height="2000" width="2000" xmlns="http://www.w3.org/2000/svg" xmlns:xlink="http://www.w3.org/1999/xlink"><g id="tight-bounds" transform="matrix(1,0,0,1,0,-8.526512829121202e-14)"><svg viewBox="0 0 280 280" height="280" width="280"><g><svg viewBox="0 0 280 280" height="280" width="280"><g><svg viewBox="0 0 280 280" height="280" width="280"><g id="textblocktransform"><svg viewBox="0 0 280 280" height="280" width="280" id="textblock"><g><svg viewBox="0 0 280 280" height="280" width="280"><g transform="matrix(1,0,0,1,90.50252531694167,90.79108347875997)"><svg viewBox="0 0 98.99494936611666 98.41783304248005" height="98.41783304248005" width="98.99494936611666"><g id="icon-0"><svg xmlns="http://www.w3.org/2000/svg" viewBox="20 20.173631984616488 60.018743579525974 59.66884899535076" x="0" y="0" height="98.41783304248005" width="98.99494936611666" class="icon-jxe-0" data-fill-palette-color="accent" id="jxe-0"><g data-name="Calque 2" fill="#003c3b" data-fill-palette-color="accent"><path d="M23.82 23.07A1.82 1.82 0 1 1 22 24.88 1.82 1.82 0 0 1 23.82 23.07M23.82 28.65A3.73 3.73 0 0 0 25.82 28.09C27.89 29.53 34.9 34.54 36.03 35.23A6.25 6.25 0 0 0 39.22 36.48C39.85 36.48 41.22 36.54 43.35 36.54A2.75 2.75 0 0 0 45.8 38 2.76 2.76 0 1 0 43.11 34.68C41.17 34.68 39.85 34.68 39.29 34.62A3.8 3.8 0 0 1 37 33.71C36 33.08 29.36 28.32 27.1 26.71A4 4 0 0 0 27.57 25 3.7 3.7 0 0 0 23.87 21.3 3.74 3.74 0 0 0 20.17 25 3.6 3.6 0 0 0 23.82 28.64Z" fill="#003c3b" data-fill-palette-color="accent"></path><path d="M22.13 44.61A1.82 1.82 0 1 1 23.95 46.43 1.78 1.78 0 0 1 22.13 44.61M27.52 45.55H33A2.71 2.71 0 0 0 35.57 47.37 2.76 2.76 0 0 0 35.57 41.86 2.71 2.71 0 0 0 33 43.67H27.52A3.76 3.76 0 0 0 23.95 40.91 3.7 3.7 0 0 0 20.25 44.61 3.74 3.74 0 0 0 23.95 48.31 3.52 3.52 0 0 0 27.52 45.55" fill="#003c3b" data-fill-palette-color="accent"></path><path d="M28.33 49.87A1.82 1.82 0 1 1 26.51 51.69 1.82 1.82 0 0 1 28.33 49.87M28.33 55.45A3.7 3.7 0 0 0 31.9 52.69H33A2.72 2.72 0 0 0 35.57 54.51 2.76 2.76 0 0 0 35.57 49 2.71 2.71 0 0 0 33 50.81H31.9A3.76 3.76 0 0 0 28.33 48.05 3.7 3.7 0 0 0 28.33 55.44Z" fill="#003c3b" data-fill-palette-color="accent"></path><path d="M23.7 75.24A1.82 1.82 0 1 1 25.52 73.42 1.78 1.78 0 0 1 23.7 75.24M24.76 69.85V63.4C24.76 60.46 25.76 59.83 27.45 59.83 29.52 59.83 31.83 59.83 32.84 59.89A2.73 2.73 0 0 0 35.47 61.71 2.76 2.76 0 1 0 35.47 56.2 2.71 2.71 0 0 0 32.9 58C31.84 58 29.52 57.94 27.51 57.94 22.87 57.94 22.87 62.01 22.87 63.39V69.78A3.76 3.76 0 0 0 20 73.42 3.7 3.7 0 0 0 23.7 77.12 3.74 3.74 0 0 0 27.4 73.42 3.58 3.58 0 0 0 24.76 69.86Z" fill="#003c3b" data-fill-palette-color="accent"></path><path d="M75.06 75.24A1.82 1.82 0 1 1 76.88 73.42 1.82 1.82 0 0 1 75.06 75.24M75.87 69.79V63.4C75.87 62.09 75.87 57.95 71.3 57.95 69.23 57.95 66.92 57.95 65.91 58.01A2.71 2.71 0 0 0 63.34 56.19 2.76 2.76 0 1 0 63.34 61.7 2.85 2.85 0 0 0 66 59.9C67.06 59.9 69.38 59.84 71.39 59.84 73 59.83 74 60.4 74 63.4V69.85A3.7 3.7 0 0 0 75 77.11 3.71 3.71 0 0 0 75.82 69.78Z" fill="#003c3b" data-fill-palette-color="accent"></path><path d="M72.42 23.69A1.57 1.57 0 1 1 74 25.26 1.59 1.59 0 0 1 72.42 23.69M63.59 47.37A2.76 2.76 0 0 0 66 45.86H70.57C74.83 45.86 74.83 42.1 74.83 40.86V27A3.46 3.46 0 1 0 70.57 23.62 3.44 3.44 0 0 0 73.05 27V40.9C73.05 43.53 72.23 44.03 70.67 44.03H66.35A2.75 2.75 0 0 0 60.9 44.59 2.63 2.63 0 0 0 63.59 47.37" fill="#003c3b" data-fill-palette-color="accent"></path><path d="M76.37 50.13A1.82 1.82 0 1 1 74.55 51.95 1.78 1.78 0 0 1 76.37 50.13M63.37 54.7A2.71 2.71 0 0 0 66 52.88H72.77A3.76 3.76 0 0 0 76.34 55.64 3.7 3.7 0 1 0 72.74 51H66A2.71 2.71 0 0 0 63.43 49.18 2.78 2.78 0 0 0 60.67 51.94 2.73 2.73 0 0 0 63.4 54.7Z" fill="#003c3b" data-fill-palette-color="accent"></path><rect x="40.48" y="39.98" width="18.04" height="23.93" rx="3.95" ry="3.95" fill="#003c3b" data-fill-palette-color="accent"></rect><path d="M40.48 24.45A1.82 1.82 0 1 1 38.66 26.27 1.86 1.86 0 0 1 40.48 24.45M40.48 30.03A3.7 3.7 0 0 0 44 27.33H50.26C50.95 27.33 51.57 27.33 51.83 27.58S52.14 28.02 52.14 28.83C52.14 29.96 52.14 31.46 52.08 32.65A2.76 2.76 0 1 0 55.84 35.22 2.76 2.76 0 0 0 53.9 32.59C53.9 31.4 53.96 29.96 53.96 28.83A3.32 3.32 0 0 0 53.14 26.26 3.7 3.7 0 0 0 50.26 25.51H44.06A3.71 3.71 0 1 0 40.48 30Z" fill="#003c3b" data-fill-palette-color="accent"></path><path d="M35 76.18A1.82 1.82 0 1 1 33.18 74.36 1.78 1.78 0 0 1 35 76.18M45.8 66A2.71 2.71 0 0 0 43.3 67.6H36.3C34.99 67.6 32.23 67.6 32.23 71.3V72.55A3.68 3.68 0 0 0 33.11 79.82 3.74 3.74 0 0 0 36.81 76.12 3.7 3.7 0 0 0 34.12 72.55C34.12 72.18 34.06 71.73 34.06 71.3 34.06 69.61 34.62 69.48 36.25 69.48H43.08A2.69 2.69 0 0 0 45.71 71.48 2.78 2.78 0 0 0 48.47 68.72 2.69 2.69 0 0 0 45.8 66" fill="#003c3b" data-fill-palette-color="accent"></path><path d="M62.71 78A1.82 1.82 0 0 1 60.89 76.18 1.87 1.87 0 0 1 62.71 74.3 1.82 1.82 0 0 1 64.53 76.12 1.87 1.87 0 0 1 62.71 78M63.59 72.55V71.29C63.59 67.59 60.83 67.59 59.52 67.59H55.7A2.67 2.67 0 0 0 53.2 66 2.76 2.76 0 1 0 55.83 69.51H59.53C61.16 69.51 61.72 69.63 61.72 71.33A8 8 0 0 1 61.66 72.58 3.7 3.7 0 1 0 66.36 76.15 3.57 3.57 0 0 0 63.59 72.55" fill="#003c3b" data-fill-palette-color="accent"></path></g></svg></g></svg></g><g id="text-0"><path d="M12.191 93.528l0.172-0.544-4.935-1.415-3.974 12.511 0.712 0.226 0.69-2.174 14.873 4.724-0.691 2.174 0.702 0.222 3.974-12.51-4.838-1.689-0.173 0.543 1.152 0.791c1.391 0.942 2.101 1.904 2.13 2.885v0c0.006 0.299-0.04 0.604-0.138 0.913v0l-1.378 4.338-7.302-2.319 1.773-5.584-0.791-0.251-1.773 5.584-6.779-2.154 1.378-4.338c0.414-1.304 1.587-1.958 3.517-1.961v0c0.122 0.003 0.223 0.006 0.302 0.008v0z" fill="#c10000" data-fill-palette-color="primary"></path><path d="M13.537 78.367l-3.517 7.121 0.669 0.331 1.01-2.045 13.992 6.909-1.01 2.046 0.66 0.326 3.48-7.047c1.133-2.293 1.349-4.534 0.649-6.722v0c-0.688-2.167-2.163-3.809-4.425-4.926v0c-2.925-1.445-5.599-1.432-8.022 0.039v0c-1.467 0.91-2.629 2.233-3.486 3.968zM12.783 81.58l1.387-2.808c1.328-2.69 3.38-3.762 6.156-3.216v0c1.03 0.193 2.165 0.595 3.404 1.208v0c4.239 2.094 5.864 4.696 4.875 7.807v0c-0.103 0.35-0.239 0.695-0.407 1.036v0l-1.424 2.882z" fill="#c10000" data-fill-palette-color="primary"></path><path d="M20.547 65.552l0.604 0.439 1.339-1.847 8.042 5.83c3.623 2.575 6.726 2.093 9.309-1.447v0c1.96-2.703 2.041-5.141 0.245-7.314v0c-0.555-0.659-1.264-1.301-2.126-1.926v0l-7.832-5.678 1.339-1.847-0.604-0.438-3.263 4.499 0.605 0.438 1.339-1.846 7.975 5.781c2.983 2.163 3.788 4.432 2.414 6.81v0c-0.117 0.197-0.243 0.388-0.377 0.572v0c-1.359 1.875-3.009 2.484-4.95 1.828v0c-0.852-0.285-1.776-0.788-2.772-1.51v0l-7.908-5.733 1.321-1.822-0.604-0.438z" fill="#c10000" data-fill-palette-color="primary"></path><path d="M48.612 57.214l5.449-5.62c-0.298-0.289-0.575-0.346-0.831-0.171v0c-0.077 0.06-0.15 0.125-0.217 0.194v0l-1.343 1.385-11.203-10.862 1.147-1.184c1.068-1.102 2.45-1.192 4.146-0.269v0c0.055 0.053 0.099 0.086 0.134 0.1v0l1.687 1.001 0.556-0.573-4.128-3.801-9.787 10.095 3.926 4.008 0.556-0.573-1.052-1.655c-0.912-1.731-0.899-3.159 0.036-4.283v0l1.076-1.109 11.203 10.862-1.884 1.943z" fill="#c10000" data-fill-palette-color="primary"></path><path d="M61.776 29.718l0.45-0.351-3.272-3.957-10.349 8.074 0.459 0.589 1.799-1.403 9.598 12.303-1.798 1.403 0.452 0.581 10.35-8.075-3.036-4.127-0.45 0.351 0.504 1.303c0.615 1.563 0.657 2.758 0.126 3.584v0c-0.164 0.251-0.374 0.476-0.63 0.675v0l-3.589 2.8-4.713-6.041 4.619-3.604-0.51-0.654-4.619 3.604-4.375-5.608 3.589-2.8c1.079-0.842 2.416-0.719 4.01 0.369v0c0.1 0.071 0.181 0.131 0.244 0.178v0z" fill="#c10000" data-fill-palette-color="primary"></path><path d="M84.844 28.446v0c0.393 0.691 0.716 1.028 0.97 1.011v0c0.145-0.011 0.316-0.073 0.515-0.186v0l-2.663-4.676-0.594 0.338c0.708 3.2-0.194 5.527-2.708 6.981v0c-2.145 1.221-4.22 0.97-6.225-0.751v0c-0.98-0.842-1.879-1.981-2.697-3.416v0c-1.754-3.082-2.099-5.657-1.034-7.727v0c0.482-0.887 1.176-1.588 2.083-2.105v0c2.061-1.173 4.107-1.049 6.141 0.371v0c0.363 0.247 0.706 0.521 1.029 0.822v0l0.594-0.339-2.671-4.504c-0.36 0.205-0.518 0.446-0.472 0.722v0c0.065 0.226 0.224 0.561 0.477 1.005v0c-0.751-0.201-1.788-0.123-3.113 0.233v0c-0.86 0.251-1.686 0.602-2.479 1.053v0c-2.607 1.484-4.053 3.583-4.336 6.298v0c-0.182 1.917 0.235 3.767 1.251 5.552v0c1.228 2.157 2.93 3.59 5.107 4.299v0c2.279 0.707 4.558 0.412 6.834-0.884v0c1.657-0.959 2.988-2.325 3.991-4.097z" fill="#c10000" data-fill-palette-color="primary"></path><path d="M89.653 27.767l6.549-2.409c-0.143-0.389-0.368-0.561-0.675-0.514v0c-0.096 0.02-0.189 0.047-0.279 0.081v0l-1.411 0.519-2.646-7.191 8.204-3.018 2.645 7.192-2.141 0.787 0.254 0.691 6.549-2.409c-0.143-0.389-0.368-0.561-0.675-0.514v0c-0.096 0.02-0.189 0.047-0.28 0.081v0l-1.411 0.519-5.387-14.645 2.112-0.777-0.258-0.701-6.549 2.409 0.258 0.701 2.141-0.788 2.455 6.676-8.203 3.018-2.456-6.676 2.112-0.777-0.258-0.7-6.549 2.409 0.258 0.7 2.141-0.787 5.387 14.645-2.141 0.788z" fill="#c10000" data-fill-palette-color="primary"></path><path d="M136.522 0.742l-0.08-0.742-4.536 0.486-4.632 14.5-8.049-13.143-4.052 0.434 0.08 0.742 2.268-0.243 1.661 15.516-2.268 0.243 0.078 0.732 5.67-0.607c-0.044-0.412-0.221-0.633-0.53-0.663v0c-0.098-0.003-0.195 0-0.29 0.01v0l-1.526 0.164-1.303-12.176 7.593 12.389 0.598-0.064 4.976-15.278 1.466 13.702-2.258 0.242 0.079 0.732 6.794-0.728c-0.044-0.412-0.221-0.633-0.53-0.663v0c-0.098-0.003-0.195 0-0.291 0.011v0l-1.526 0.163-1.661-15.516z" fill="#c10000" data-fill-palette-color="primary"></path><path d="M151.53 17.877l6.132 0.442c0.03-0.414-0.105-0.662-0.403-0.746v0c-0.089-0.02-0.181-0.034-0.278-0.041v0l-0.962-0.07-5.328-16.778-1.055-0.076-7.537 15.85-1.789-0.129-0.053 0.734 5.057 0.365c0.03-0.414-0.105-0.662-0.403-0.746v0c-0.096-0.021-0.192-0.035-0.288-0.042v0l-1.386-0.1 2.528-5.358 5.936 0.428 1.733 5.666-1.851-0.134zM149.267 3.7l2.183 7.06-5.315-0.383z" fill="#c10000" data-fill-palette-color="primary"></path><path d="M173.549 16.945v0c0.34-1.659-0.28-3.173-1.862-4.542v0c-0.315-0.255-1.301-0.969-2.958-2.141v0c-1.513-1.051-2.406-1.993-2.68-2.826v0c-0.14-0.452-0.162-0.912-0.066-1.379v0c0.256-1.246 1.039-1.985 2.349-2.217v0c0.563-0.096 1.159-0.08 1.789 0.05v0c1.564 0.321 2.644 1.093 3.24 2.316v0c0.393 0.836 0.472 1.773 0.238 2.811v0l0.843 0.173 1.001-4.875c-0.447-0.092-0.736-0.006-0.868 0.256v0c-0.067 0.12-0.123 0.292-0.169 0.515v0c-1.172-0.995-2.584-1.663-4.236-2.001v0c-2.011-0.413-3.686-0.174-5.026 0.715v0c-0.905 0.626-1.464 1.46-1.678 2.503v0c-0.32 1.557 0.293 3.01 1.837 4.356v0c0.284 0.235 1.246 0.926 2.887 2.075v0c1.52 1.088 2.425 2.057 2.716 2.907v0c0.155 0.483 0.181 0.976 0.078 1.477v0c-0.267 1.3-1.092 2.108-2.476 2.423v0c-0.65 0.142-1.337 0.138-2.062-0.01v0c-2.836-0.624-4.06-2.689-3.672-6.194v0l-0.833-0.171-1.184 5.769c0.447 0.092 0.734 0.017 0.861-0.225v0c0.064-0.142 0.137-0.409 0.218-0.803v0c1.241 1.243 2.772 2.051 4.594 2.425v0c2.14 0.439 3.913 0.203 5.321-0.707v0c0.967-0.655 1.567-1.548 1.798-2.68z" fill="#c10000" data-fill-palette-color="primary"></path><path d="M179.263 23.593l7.366 2.648c0.14-0.39 0.078-0.666-0.187-0.828v0c-0.086-0.046-0.175-0.085-0.266-0.118v0l-1.815-0.652 5.279-14.685 1.551 0.558c1.444 0.519 2.096 1.741 1.954 3.666v0c-0.026 0.072-0.038 0.126-0.036 0.164v0l-0.216 1.949 0.751 0.27 1.761-5.328-13.231-4.755-2.034 5.229 0.751 0.27 1.075-1.641c1.201-1.544 2.507-2.121 3.917-1.732v0l1.454 0.523-5.279 14.684-2.546-0.915z" fill="#c10000" data-fill-palette-color="primary"></path><path d="M209.741 24.251l0.504 0.265 2.257-4.612-11.623-6.1-0.347 0.661 2.02 1.06-7.252 13.818-2.019-1.06-0.343 0.652 11.624 6.099 2.508-4.468-0.505-0.265-0.979 0.997c-1.171 1.204-2.242 1.735-3.213 1.592v0c-0.296-0.046-0.588-0.144-0.875-0.295v0l-4.031-2.115 3.561-6.785 5.187 2.722 0.385-0.734-5.187-2.722 3.305-6.299 4.031 2.115c1.212 0.636 1.651 1.905 1.317 3.806v0c-0.024 0.12-0.044 0.219-0.062 0.296v0z" fill="#c10000" data-fill-palette-color="primary"></path><path d="M207.917 37.284l5.627 4.127 0.435-0.593-1.814-1.331 4.195-5.718 2.182 1.6-0.96 9.005 3.469 2.545c0.245-0.334 0.294-0.594 0.148-0.78v0c-0.07-0.068-0.158-0.141-0.264-0.219v0l-0.878-0.644 0.653-8.638c1.712 0.716 3.263 0.688 4.653-0.085v0c0.536-0.31 0.978-0.702 1.325-1.175v0c0.842-1.148 1.018-2.434 0.527-3.857v0c-0.403-1.145-1.202-2.154-2.394-3.029v0l-6.797-4.986-0.442 0.602 1.839 1.349-9.229 12.583-1.84-1.349zM221.395 26.905l2.29 1.68c1.315 0.965 1.834 2.168 1.557 3.611v0c-0.126 0.593-0.367 1.132-0.724 1.617v0c-0.81 1.104-1.824 1.68-3.042 1.728v0c-0.821 0.032-1.574-0.203-2.26-0.706v0l-2.366-1.735z" fill="#c10000" data-fill-palette-color="primary"></path><path d="M249.118 52.416l0.537-0.518-3.168-3.283-14.29 5.245 5.434-14.422-2.83-2.932-0.537 0.518 1.584 1.642-11.229 10.836-1.584-1.642-0.529 0.512 3.96 4.103c0.298-0.288 0.364-0.563 0.198-0.825v0c-0.057-0.079-0.119-0.154-0.187-0.223v0l-1.066-1.104 8.812-8.504-5.119 13.6 0.418 0.432 15.115-5.45-9.916 9.569-1.577-1.634-0.529 0.511 4.744 4.917c0.298-0.288 0.364-0.563 0.198-0.825v0c-0.057-0.079-0.119-0.154-0.186-0.224v0l-1.066-1.104 11.229-10.836z" fill="#c10000" data-fill-palette-color="primary"></path><path d="M239.336 66.505l4.104 5.643c0.335-0.244 0.439-0.507 0.31-0.79v0c-0.046-0.086-0.097-0.169-0.154-0.246v0l-0.884-1.216 12.62-9.179 1.323 1.82 0.604-0.439-4.104-5.643-0.604 0.439 1.342 1.844-12.62 9.179-1.342-1.845z" fill="#c10000" data-fill-palette-color="primary"></path><path d="M266.029 77.522l-0.656 0.357 1.154 2.122-11.204 6.092 6.695-15.949-1.892-3.48-0.656 0.357 1.089 2.004-13.709 7.453-1.09-2.004-0.646 0.352 2.788 5.129c0.364-0.198 0.501-0.446 0.411-0.743v0c-0.034-0.092-0.074-0.18-0.121-0.265v0l-0.802-1.476 11.587-6.299-7.012 16.558 0.879 1.009 14.228-7.736 1.09 2.004 0.656-0.356z" fill="#c10000" data-fill-palette-color="primary"></path><path d="M273.534 95.107l-2.657-7.485-0.704 0.25 0.764 2.15-14.706 5.22-0.763-2.15-0.694 0.246 2.629 7.407c0.856 2.41 2.312 4.127 4.37 5.149v0c2.033 1.017 4.239 1.103 6.616 0.259v0c3.075-1.091 4.928-3.018 5.562-5.781v0c0.37-1.686 0.231-3.441-0.417-5.265zM271.755 92.328l1.048 2.95c1.004 2.827 0.343 5.046-1.983 6.657v0c-0.856 0.605-1.936 1.138-3.239 1.601v0c-4.456 1.582-7.455 0.934-8.997-1.945v0c-0.179-0.318-0.332-0.656-0.459-1.014v0l-1.075-3.029z" fill="#c10000" data-fill-palette-color="primary"></path><path d="M23.446 187.855l0.172 0.544 4.848-1.692-3.974-12.511-0.711 0.226 0.69 2.174-14.872 4.724-0.691-2.174-0.701 0.223 3.973 12.511 4.926-1.413-0.173-0.543-1.397 0.019c-1.679 0.033-2.814-0.343-3.404-1.127v0c-0.178-0.241-0.316-0.516-0.414-0.826v0l-1.378-4.338 7.302-2.319 1.774 5.583 0.79-0.251-1.773-5.583 6.779-2.154 1.378 4.339c0.414 1.304-0.166 2.515-1.74 3.631v0c-0.102 0.069-0.185 0.124-0.252 0.167v0z" fill="#c10000" data-fill-palette-color="primary"></path><path d="M33.329 196.817l-3.517-7.122-0.67 0.331 1.011 2.045-13.992 6.91-1.01-2.045-0.66 0.326 3.48 7.047c1.133 2.293 2.78 3.827 4.944 4.601v0c2.139 0.771 4.339 0.598 6.601-0.52v0c2.925-1.445 4.54-3.576 4.844-6.393v0c0.169-1.718-0.175-3.445-1.031-5.18zM31.236 194.265l1.387 2.808c1.328 2.69 0.932 4.971-1.189 6.843v0c-0.779 0.701-1.789 1.358-3.028 1.97v0c-4.239 2.094-7.294 1.802-9.163-0.876v0c-0.215-0.295-0.407-0.613-0.575-0.953v0l-1.423-2.882z" fill="#c10000" data-fill-palette-color="primary"></path><path d="M38.418 206.449l-0.604 0.438 1.339 1.847-8.042 5.83c-3.574 2.642-4.081 5.742-1.52 9.298v0c1.96 2.703 4.252 3.539 6.876 2.507v0c0.799-0.323 1.629-0.797 2.491-1.422v0l7.832-5.678 1.339 1.847 0.605-0.438-3.262-4.5-0.605 0.438 1.339 1.847-7.975 5.782c-2.983 2.163-5.39 2.222-7.222 0.177v0c-0.151-0.172-0.293-0.351-0.427-0.535v0c-1.359-1.875-1.425-3.632-0.199-5.273v0c0.536-0.721 1.302-1.443 2.298-2.166v0l7.908-5.733 1.32 1.822 0.605-0.438z" fill="#c10000" data-fill-palette-color="primary"></path><path d="M39.924 236.167l5.449 5.621c0.298-0.289 0.363-0.564 0.196-0.826v0c-0.057-0.079-0.12-0.153-0.187-0.223v0l-1.342-1.385 11.203-10.862 1.148 1.184c1.068 1.102 1.115 2.486 0.141 4.152v0c-0.055 0.053-0.089 0.096-0.105 0.131v0l-1.052 1.655 0.556 0.574 3.926-4.009-9.787-10.095-4.128 3.801 0.556 0.573 1.687-1.001c1.758-0.858 3.185-0.801 4.28 0.169v0l1.075 1.11-11.204 10.862-1.883-1.943z" fill="#c10000" data-fill-palette-color="primary"></path><path d="M69.04 245.929l0.45 0.351 3.042-4.136-10.349-8.074-0.459 0.588 1.798 1.404-9.599 12.303-1.798-1.403-0.453 0.58 10.35 8.074 3.265-3.949-0.45-0.35-1.141 0.805c-1.367 0.976-2.515 1.308-3.446 0.995v0c-0.283-0.098-0.553-0.247-0.808-0.447v0l-3.589-2.8 4.713-6.041 4.619 3.603 0.51-0.654-4.619-3.603 4.375-5.608 3.589 2.8c1.079 0.842 1.285 2.168 0.617 3.979v0c-0.045 0.114-0.083 0.207-0.113 0.28v0z" fill="#c10000" data-fill-palette-color="primary"></path><path d="M80.151 264.758v0c-0.393 0.691-0.518 1.141-0.375 1.35v0c0.083 0.119 0.224 0.235 0.423 0.348v0l2.662-4.677-0.595-0.339c-2.39 2.243-4.852 2.655-7.385 1.237v0c-2.145-1.221-2.989-3.133-2.533-5.737v0c0.223-1.273 0.744-2.627 1.561-4.062v0c1.754-3.082 3.793-4.693 6.116-4.835v0c1.008-0.039 1.966 0.2 2.873 0.717v0c2.061 1.173 2.999 2.996 2.817 5.469v0c-0.027 0.438-0.087 0.873-0.182 1.304v0l0.595 0.339 2.509-4.597c-0.36-0.205-0.648-0.218-0.862-0.037v0c-0.161 0.171-0.368 0.479-0.621 0.923v0c-0.21-0.748-0.807-1.601-1.789-2.557v0c-0.654-0.611-1.378-1.142-2.171-1.594v0c-2.607-1.484-5.15-1.655-7.63-0.513v0c-1.741 0.823-3.119 2.126-4.134 3.91v0c-1.228 2.157-1.59 4.352-1.089 6.586v0c0.556 2.321 1.972 4.129 4.249 5.425v0c1.671 0.935 3.524 1.382 5.561 1.34z" fill="#c10000" data-fill-palette-color="primary"></path><path d="M85.476 268.548l6.549 2.409c0.143-0.389 0.083-0.666-0.181-0.829v0c-0.086-0.046-0.174-0.086-0.266-0.12v0l-1.411-0.519 2.646-7.191 8.203 3.017-2.646 7.192-2.14-0.788-0.254 0.691 6.548 2.409c0.143-0.389 0.083-0.666-0.181-0.829v0c-0.086-0.046-0.174-0.086-0.265-0.12v0l-1.411-0.519 5.387-14.645 2.112 0.777 0.258-0.701-6.549-2.409-0.258 0.701 2.141 0.787-2.456 6.676-8.203-3.018 2.456-6.675 2.111 0.777 0.258-0.701-6.549-2.409-0.258 0.7 2.141 0.788-5.387 14.645-2.141-0.787z" fill="#c10000" data-fill-palette-color="primary"></path><path d="M138.712 263.752l0.079-0.742-4.536-0.486-7.595 13.192-5.086-14.549-4.051-0.434-0.08 0.742 2.268 0.243-1.66 15.516-2.269-0.243-0.078 0.732 5.67 0.607c0.044-0.412-0.082-0.666-0.377-0.76v0c-0.095-0.024-0.19-0.041-0.287-0.051v0l-1.525-0.163 1.303-12.176 4.799 13.715 0.598 0.064 8.097-13.878-1.467 13.701-2.258-0.241-0.078 0.732 6.794 0.727c0.044-0.412-0.082-0.666-0.378-0.76v0c-0.095-0.024-0.19-0.041-0.286-0.051v0l-1.526-0.164 1.661-15.516z" fill="#c10000" data-fill-palette-color="primary"></path><path d="M152.4 279.151l6.133-0.442c-0.03-0.414-0.199-0.641-0.507-0.681v0c-0.091-0.007-0.184-0.008-0.28-0.001v0l-0.962 0.07-7.682-15.84-1.054 0.076-5.184 16.768-1.789 0.129 0.053 0.734 5.057-0.364c-0.03-0.414-0.199-0.641-0.506-0.681v0c-0.098-0.007-0.195-0.007-0.292 0v0l-1.385 0.1 1.732-5.666 5.936-0.428 2.529 5.358-1.852 0.134zM148.127 265.446l3.174 6.674-5.316 0.383z" fill="#c10000" data-fill-palette-color="primary"></path><path d="M174.185 271.111v0c-0.34-1.659-1.507-2.806-3.5-3.441v0c-0.39-0.111-1.577-0.378-3.563-0.804v0c-1.805-0.371-2.997-0.884-3.576-1.541v0c-0.307-0.36-0.508-0.774-0.604-1.242v0c-0.256-1.246 0.173-2.234 1.286-2.963v0c0.48-0.31 1.034-0.53 1.664-0.659v0c1.564-0.321 2.861-0.037 3.891 0.853v0c0.69 0.613 1.132 1.444 1.326 2.49v0l0.843-0.173-1.001-4.875c-0.447 0.092-0.679 0.284-0.696 0.577v0c-0.014 0.137 0.002 0.317 0.047 0.541v0c-1.469-0.454-3.03-0.511-4.682-0.172v0c-2.011 0.413-3.457 1.292-4.338 2.637v0c-0.585 0.932-0.771 1.919-0.557 2.961v0c0.32 1.557 1.454 2.651 3.404 3.281v0c0.353 0.104 1.51 0.36 3.471 0.77v0c1.825 0.402 3.039 0.936 3.642 1.602v0c0.333 0.383 0.55 0.826 0.653 1.327v0c0.267 1.3-0.174 2.368-1.322 3.203v0c-0.542 0.386-1.175 0.654-1.899 0.803v0c-2.852 0.543-4.79-0.873-5.814-4.247v0l-0.833 0.17 1.184 5.77c0.447-0.092 0.681-0.274 0.702-0.547v0c0.003-0.156-0.035-0.43-0.116-0.823v0c1.63 0.653 3.356 0.793 5.178 0.419v0c2.14-0.439 3.677-1.354 4.612-2.745v0c0.631-0.983 0.83-2.04 0.598-3.172z" fill="#c10000" data-fill-palette-color="primary"></path><path d="M183.356 272.753l7.367-2.648c-0.14-0.39-0.364-0.563-0.672-0.519v0c-0.096 0.02-0.189 0.046-0.28 0.079v0l-1.815 0.652-5.278-14.685 1.551-0.557c1.444-0.519 2.725 0.009 3.842 1.583v0c0.026 0.072 0.051 0.121 0.075 0.149v0l1.075 1.641 0.751-0.27-2.034-5.23-13.231 4.756 1.761 5.328 0.751-0.27-0.216-1.95c-0.057-1.956 0.583-3.232 1.918-3.829v0l1.454-0.523 5.279 14.685-2.547 0.915z" fill="#c10000" data-fill-palette-color="primary"></path><path d="M204.253 250.251l0.505-0.265-2.513-4.478-11.624 6.1 0.347 0.661 2.02-1.06 7.251 13.818-2.02 1.06 0.343 0.652 11.623-6.1-2.252-4.603-0.505 0.265 0.264 1.372c0.326 1.648 0.155 2.831-0.515 3.549v0c-0.206 0.217-0.453 0.402-0.74 0.553v0l-4.031 2.115-3.561-6.785 5.188-2.722-0.386-0.735-5.187 2.722-3.305-6.298 4.03-2.115c1.212-0.636 2.505-0.276 3.88 1.079v0c0.085 0.088 0.155 0.161 0.208 0.218v0z" fill="#c10000" data-fill-palette-color="primary"></path><path d="M215.074 257.431l5.627-4.127-0.436-0.594-1.814 1.331-4.194-5.718 2.182-1.601 8.3 3.62 3.47-2.545c-0.245-0.334-0.478-0.459-0.699-0.375v0c-0.086 0.046-0.182 0.108-0.289 0.186v0l-0.877 0.644-8.044-3.217c1.197-1.418 1.636-2.906 1.317-4.463v0c-0.135-0.604-0.376-1.143-0.723-1.617v0c-0.842-1.148-2.016-1.702-3.521-1.662v0c-1.213 0.041-2.416 0.499-3.608 1.374v0l-6.797 4.986 0.441 0.602 1.84-1.349 9.229 12.582-1.839 1.35zM209.222 241.459l2.29-1.681c1.315-0.965 2.619-1.098 3.912-0.4v0c0.528 0.299 0.969 0.691 1.325 1.176v0c0.81 1.104 1.055 2.244 0.735 3.421v0c-0.216 0.793-0.666 1.44-1.352 1.943v0l-2.366 1.736z" fill="#c10000" data-fill-palette-color="primary"></path><path d="M234.308 218.25l-0.537-0.518-3.168 3.283 5.751 14.094-14.607-4.917-2.829 2.932 0.537 0.518 1.584-1.641 11.229 10.836-1.585 1.641 0.53 0.511 3.96-4.103c-0.298-0.288-0.576-0.344-0.831-0.169v0c-0.077 0.06-0.149 0.125-0.217 0.195v0l-1.066 1.104-8.811-8.503 13.773 4.631 0.417-0.433-5.985-14.911 9.916 9.569-1.577 1.634 0.53 0.511 4.745-4.917c-0.298-0.288-0.576-0.344-0.832-0.168v0c-0.077 0.06-0.149 0.125-0.216 0.194v0l-1.066 1.105-11.229-10.836z" fill="#c10000" data-fill-palette-color="primary"></path><path d="M249.122 225.571l4.104-5.644c-0.335-0.244-0.618-0.261-0.847-0.052v0c-0.068 0.07-0.131 0.144-0.187 0.223v0l-0.884 1.216-12.62-9.178 1.323-1.82-0.604-0.439-4.104 5.643 0.604 0.439 1.341-1.844 12.62 9.178-1.341 1.845z" fill="#c10000" data-fill-palette-color="primary"></path><path d="M246.636 196.892l0.656 0.357 1.154-2.123 11.205 6.092-17.026 3.053-1.892 3.479 0.656 0.357 1.089-2.004 13.71 7.454-1.09 2.004 0.647 0.351 2.788-5.128c-0.364-0.198-0.647-0.178-0.846 0.059v0c-0.058 0.078-0.111 0.16-0.157 0.245v0l-0.802 1.476-11.587-6.3 17.71-3.117 0.369-1.287-14.229-7.736 1.09-2.004-0.656-0.356z" fill="#c10000" data-fill-palette-color="primary"></path><path d="M252.732 182.467l-2.657 7.485 0.703 0.249 0.764-2.149 14.705 5.22-0.763 2.15 0.694 0.246 2.629-7.407c0.856-2.41 0.807-4.661-0.145-6.752v0c-0.937-2.071-2.595-3.529-4.972-4.372v0c-3.075-1.091-5.729-0.765-7.962 0.98v0c-1.35 1.076-2.349 2.526-2.996 4.35zM252.36 185.746l1.048-2.951c1.004-2.827 2.916-4.132 5.736-3.916v0c1.046 0.071 2.22 0.337 3.523 0.799v0c4.456 1.582 6.375 3.976 5.757 7.182v0c-0.062 0.36-0.156 0.718-0.283 1.077v0l-1.075 3.029z" fill="#c10000" data-fill-palette-color="primary"></path><path d="M2.72 142.479c0-3.664 2.97-6.634 6.634-6.634 3.664 0 6.634 2.97 6.634 6.634 0 3.664-2.97 6.634-6.634 6.634-3.664 0-6.634-2.97-6.634-6.634z" fill="#c10000" data-fill-palette-color="primary"></path><path d="M264.012 142.479c0-3.664 2.97-6.634 6.634-6.634 3.664 0 6.634 2.97 6.634 6.634 0 3.664-2.97 6.634-6.634 6.634-3.664 0-6.634-2.97-6.634-6.634z" fill="#c10000" data-fill-palette-color="primary"></path></g><g id="text-1"></g></svg></g></svg></g></svg></g></svg></g><defs></defs></svg><rect width="280" height="280" fill="none" stroke="none" visibility="hidden"></rect></g></svg></g></svg>