<svg xmlns="http://www.w3.org/2000/svg" version="1.1" xmlns:xlink="http://www.w3.org/1999/xlink" xmlns:svgjs="http://svgjs.dev/svgjs" width="200" height="200" viewBox="0 0 2000 2000"><g transform="matrix(1,0,0,1,0,0.001954788075408942)"><svg viewBox="0 0 280 280" data-background-color="#ffffff" preserveAspectRatio="xMidYMid meet" height="2000" width="2000" xmlns="http://www.w3.org/2000/svg" xmlns:xlink="http://www.w3.org/1999/xlink"><g id="tight-bounds" transform="matrix(1,0,0,1,0,-0.00006790785164412227)"><svg viewBox="0 0 280 280" height="280" width="280"><g><svg viewBox="0 0 280 280" height="280" width="280"><g transform="matrix(1,0,0,1,60.80404050710668,115.13683626534417)"><svg viewBox="0 0 158.39191898578665 49.72632746931165" height="49.72632746931165" width="158.39191898578665"><g><svg viewBox="0 0 158.39191898578665 49.72632746931165" height="49.72632746931165" width="158.39191898578665"><g transform="matrix(1,0,0,1,0,37.2949817975515)"><svg viewBox="0 0 158.39191898578665 12.431345671760148" height="12.431345671760148" width="158.39191898578665"><g id="textblocktransform"><svg viewBox="0 0 158.39191898578665 12.431345671760148" height="12.431345671760148" width="158.39191898578665" id="textblock"><g><svg viewBox="0 0 158.39191898578665 12.431345671760148" height="12.431345671760148" width="158.39191898578665"><g transform="matrix(1,0,0,1,0,0)"><svg width="158.39191898578665" viewBox="4.05 -37 477.75 37.5" height="12.431345671760148" data-palette-color="#ed3f3f"><path d="M6.65-35.05L6.65-35.05Q7.25-35.05 7.9-34.75 8.55-34.45 8.9-33.9L8.9-33.9 21.6-14.55 19.45-14.65 32.4-33.9Q33.2-35.05 34.45-35.05L34.45-35.05Q35.45-35.05 36.23-34.33 37-33.6 37-32.5L37-32.5 37-2.55Q37-1.45 36.3-0.73 35.6 0 34.45 0L34.45 0Q33.25 0 32.52-0.73 31.8-1.45 31.8-2.55L31.8-2.55 31.8-27.9 33.4-27.55 22.4-10.8Q22.05-10.35 21.5-10.03 20.95-9.7 20.35-9.75L20.35-9.75Q19.8-9.7 19.23-10.03 18.65-10.35 18.3-10.8L18.3-10.8 7.7-27.3 8.9-29.3 8.9-2.55Q8.9-1.45 8.22-0.73 7.55 0 6.45 0L6.45 0Q5.4 0 4.73-0.73 4.05-1.45 4.05-2.55L4.05-2.55 4.05-32.5Q4.05-33.55 4.83-34.3 5.6-35.05 6.65-35.05ZM69.6-13.15L69.6-13.15Q69.6-9.15 67.82-6.08 66.05-3 63.05-1.25 60.05 0.5 56.3 0.5L56.3 0.5Q52.6 0.5 49.57-1.25 46.55-3 44.77-6.08 43-9.15 43-13.15L43-13.15Q43-17.2 44.77-20.28 46.55-23.35 49.57-25.13 52.6-26.9 56.3-26.9L56.3-26.9Q60.05-26.9 63.05-25.13 66.05-23.35 67.82-20.28 69.6-17.2 69.6-13.15ZM64.6-13.15L64.6-13.15Q64.6-15.9 63.5-17.93 62.4-19.95 60.52-21.13 58.65-22.3 56.3-22.3L56.3-22.3Q54-22.3 52.12-21.13 50.25-19.95 49.12-17.93 48-15.9 48-13.15L48-13.15Q48-10.5 49.12-8.45 50.25-6.4 52.12-5.25 54-4.1 56.3-4.1L56.3-4.1Q58.65-4.1 60.52-5.25 62.4-6.4 63.5-8.45 64.6-10.5 64.6-13.15ZM74.65-26L74.65-26 86.4-26Q87.4-26 88.07-25.33 88.75-24.65 88.75-23.65L88.75-23.65Q88.75-22.7 88.07-22.05 87.4-21.4 86.4-21.4L86.4-21.4 74.65-21.4Q73.65-21.4 72.97-22.08 72.3-22.75 72.3-23.7L72.3-23.7Q72.3-24.7 72.97-25.35 73.65-26 74.65-26ZM79.9-32.5L79.9-32.5Q81-32.5 81.7-31.78 82.4-31.05 82.4-29.95L82.4-29.95 82.4-6.75Q82.4-5.85 82.7-5.3 83-4.75 83.52-4.55 84.05-4.35 84.59-4.35L84.59-4.35Q85.15-4.35 85.57-4.55 86-4.75 86.59-4.75L86.59-4.75Q87.2-4.75 87.7-4.2 88.2-3.65 88.2-2.7L88.2-2.7Q88.2-1.5 86.9-0.75 85.59 0 84.09 0L84.09 0Q83.25 0 82.09-0.15 80.95-0.3 79.87-0.9 78.8-1.5 78.09-2.83 77.4-4.15 77.4-6.55L77.4-6.55 77.4-29.95Q77.4-31.05 78.12-31.78 78.84-32.5 79.9-32.5ZM98.99-23.95L98.99-2.55Q98.99-1.45 98.29-0.73 97.59 0 96.49 0L96.49 0Q95.44 0 94.72-0.73 93.99-1.45 93.99-2.55L93.99-2.55 93.99-23.95Q93.99-25.05 94.72-25.78 95.44-26.5 96.49-26.5L96.49-26.5Q97.59-26.5 98.29-25.78 98.99-25.05 98.99-23.95L98.99-23.95ZM96.44-29.8L96.44-29.8Q94.99-29.8 94.34-30.33 93.69-30.85 93.69-32.1L93.69-32.1 93.69-32.9Q93.69-34.15 94.39-34.65 95.09-35.15 96.49-35.15L96.49-35.15Q97.99-35.15 98.64-34.63 99.29-34.1 99.29-32.9L99.29-32.9 99.29-32.1Q99.29-30.8 98.62-30.3 97.94-29.8 96.44-29.8ZM106.34-26.55L106.34-26.55Q107.09-26.55 107.77-26.15 108.44-25.75 108.74-24.95L108.74-24.95 116.59-6.8 115.64-6.35 123.59-24.9Q124.29-26.55 125.84-26.5L125.84-26.5Q126.84-26.5 127.52-25.88 128.19-25.25 128.19-24.25L128.19-24.25Q128.19-23.95 128.09-23.63 127.99-23.3 127.84-23L127.84-23 118.34-1.6Q117.69-0.1 116.19 0L116.19 0Q115.44 0.1 114.72-0.33 113.99-0.75 113.59-1.6L113.59-1.6 104.14-23Q104.04-23.2 103.94-23.53 103.84-23.85 103.84-24.3L103.84-24.3Q103.84-25.05 104.52-25.8 105.19-26.55 106.34-26.55ZM154.54-26.7L154.54-26.7Q155.59-26.7 156.31-25.98 157.04-25.25 157.04-24.15L157.04-24.15 157.04-2.55Q157.04-1.45 156.31-0.73 155.59 0 154.54 0L154.54 0Q153.44 0 152.74-0.73 152.04-1.45 152.04-2.55L152.04-2.55 152.04-6.15 153.04-6Q153.04-5.1 152.31-4 151.59-2.9 150.34-1.88 149.09-0.85 147.39-0.18 145.69 0.5 143.74 0.5L143.74 0.5Q140.29 0.5 137.54-1.28 134.79-3.05 133.19-6.15 131.59-9.25 131.59-13.2L131.59-13.2Q131.59-17.25 133.19-20.33 134.79-23.4 137.51-25.15 140.24-26.9 143.59-26.9L143.59-26.9Q145.74-26.9 147.56-26.2 149.39-25.5 150.74-24.4 152.09-23.3 152.84-22.08 153.59-20.85 153.59-19.75L153.59-19.75 152.04-19.6 152.04-24.15Q152.04-25.2 152.74-25.95 153.44-26.7 154.54-26.7ZM144.34-4.1L144.34-4.1Q146.69-4.1 148.46-5.3 150.24-6.5 151.24-8.58 152.24-10.65 152.24-13.2L152.24-13.2Q152.24-15.8 151.24-17.85 150.24-19.9 148.46-21.1 146.69-22.3 144.34-22.3L144.34-22.3Q142.04-22.3 140.24-21.1 138.44-19.9 137.44-17.85 136.44-15.8 136.44-13.2L136.44-13.2Q136.44-10.65 137.44-8.58 138.44-6.5 140.21-5.3 141.99-4.1 144.34-4.1ZM163.64-26L163.64-26 175.39-26Q176.39-26 177.06-25.33 177.74-24.65 177.74-23.65L177.74-23.65Q177.74-22.7 177.06-22.05 176.39-21.4 175.39-21.4L175.39-21.4 163.64-21.4Q162.64-21.4 161.96-22.08 161.29-22.75 161.29-23.7L161.29-23.7Q161.29-24.7 161.96-25.35 162.64-26 163.64-26ZM168.89-32.5L168.89-32.5Q169.99-32.5 170.69-31.78 171.39-31.05 171.39-29.95L171.39-29.95 171.39-6.75Q171.39-5.85 171.69-5.3 171.99-4.75 172.51-4.55 173.04-4.35 173.59-4.35L173.59-4.35Q174.14-4.35 174.56-4.55 174.99-4.75 175.59-4.75L175.59-4.75Q176.19-4.75 176.69-4.2 177.19-3.65 177.19-2.7L177.19-2.7Q177.19-1.5 175.89-0.75 174.59 0 173.09 0L173.09 0Q172.24 0 171.09-0.15 169.94-0.3 168.86-0.9 167.79-1.5 167.09-2.83 166.39-4.15 166.39-6.55L166.39-6.55 166.39-29.95Q166.39-31.05 167.11-31.78 167.84-32.5 168.89-32.5ZM187.98-23.95L187.98-2.55Q187.98-1.45 187.28-0.73 186.58 0 185.48 0L185.48 0Q184.43 0 183.71-0.73 182.98-1.45 182.98-2.55L182.98-2.55 182.98-23.95Q182.98-25.05 183.71-25.78 184.43-26.5 185.48-26.5L185.48-26.5Q186.58-26.5 187.28-25.78 187.98-25.05 187.98-23.95L187.98-23.95ZM185.43-29.8L185.43-29.8Q183.98-29.8 183.33-30.33 182.68-30.85 182.68-32.1L182.68-32.1 182.68-32.9Q182.68-34.15 183.38-34.65 184.08-35.15 185.48-35.15L185.48-35.15Q186.98-35.15 187.63-34.63 188.28-34.1 188.28-32.9L188.28-32.9 188.28-32.1Q188.28-30.8 187.61-30.3 186.93-29.8 185.43-29.8ZM219.73-13.15L219.73-13.15Q219.73-9.15 217.96-6.08 216.18-3 213.18-1.25 210.18 0.5 206.43 0.5L206.43 0.5Q202.73 0.5 199.71-1.25 196.68-3 194.91-6.08 193.13-9.15 193.13-13.15L193.13-13.15Q193.13-17.2 194.91-20.28 196.68-23.35 199.71-25.13 202.73-26.9 206.43-26.9L206.43-26.9Q210.18-26.9 213.18-25.13 216.18-23.35 217.96-20.28 219.73-17.2 219.73-13.15ZM214.73-13.15L214.73-13.15Q214.73-15.9 213.63-17.93 212.53-19.95 210.66-21.13 208.78-22.3 206.43-22.3L206.43-22.3Q204.13-22.3 202.26-21.13 200.38-19.95 199.26-17.93 198.13-15.9 198.13-13.15L198.13-13.15Q198.13-10.5 199.26-8.45 200.38-6.4 202.26-5.25 204.13-4.1 206.43-4.1L206.43-4.1Q208.78-4.1 210.66-5.25 212.53-6.4 213.63-8.45 214.73-10.5 214.73-13.15ZM238.68-26.9L238.68-26.9Q242.23-26.9 244.18-25.43 246.13-23.95 246.9-21.48 247.68-19 247.68-15.95L247.68-15.95 247.68-2.55Q247.68-1.45 246.95-0.73 246.23 0 245.18 0L245.18 0Q244.08 0 243.38-0.73 242.68-1.45 242.68-2.55L242.68-2.55 242.68-15.9Q242.68-17.7 242.18-19.13 241.68-20.55 240.45-21.43 239.23-22.3 237.03-22.3L237.03-22.3Q234.98-22.3 233.43-21.43 231.88-20.55 231-19.13 230.13-17.7 230.13-15.9L230.13-15.9 230.13-2.55Q230.13-1.45 229.4-0.73 228.68 0 227.63 0L227.63 0Q226.53 0 225.83-0.73 225.13-1.45 225.13-2.55L225.13-2.55 225.13-23.75Q225.13-24.85 225.83-25.58 226.53-26.3 227.63-26.3L227.63-26.3Q228.68-26.3 229.4-25.58 230.13-24.85 230.13-23.75L230.13-23.75 230.13-20.95 229.23-20.45Q229.58-21.55 230.45-22.68 231.33-23.8 232.58-24.78 233.83-25.75 235.38-26.33 236.93-26.9 238.68-26.9ZM253.08-4.1L253.08-4.1Q252.63-4.8 252.68-5.73 252.73-6.65 253.73-7.3L253.73-7.3Q254.43-7.75 255.2-7.68 255.98-7.6 256.68-6.9L256.68-6.9Q258.08-5.35 259.8-4.45 261.53-3.55 263.98-3.55L263.98-3.55Q264.98-3.6 266.03-3.88 267.08-4.15 267.83-4.88 268.58-5.6 268.58-7L268.58-7Q268.58-8.25 267.78-9 266.98-9.75 265.68-10.23 264.38-10.7 262.88-11.1L262.88-11.1Q261.28-11.55 259.65-12.1 258.03-12.65 256.73-13.53 255.43-14.4 254.6-15.8 253.78-17.2 253.78-19.25L253.78-19.25Q253.78-21.6 255.1-23.3 256.43-25 258.55-25.95 260.68-26.9 263.18-26.9L263.18-26.9Q264.63-26.9 266.23-26.53 267.83-26.15 269.33-25.35 270.83-24.55 271.93-23.25L271.93-23.25Q272.43-22.6 272.5-21.7 272.58-20.8 271.68-20.1L271.68-20.1Q271.08-19.6 270.23-19.65 269.38-19.7 268.83-20.2L268.83-20.2Q267.88-21.4 266.38-22.08 264.88-22.75 262.98-22.75L262.98-22.75Q262.03-22.75 261-22.48 259.98-22.2 259.28-21.5 258.58-20.8 258.58-19.45L258.58-19.45Q258.58-18.2 259.4-17.45 260.23-16.7 261.58-16.2 262.93-15.7 264.53-15.3L264.53-15.3Q266.08-14.9 267.6-14.35 269.13-13.8 270.35-12.93 271.58-12.05 272.35-10.68 273.13-9.3 273.13-7.2L273.13-7.2Q273.13-4.75 271.7-3.03 270.28-1.3 268.1-0.4 265.93 0.5 263.53 0.5L263.53 0.5Q260.68 0.5 257.85-0.53 255.03-1.55 253.08-4.1ZM314.82-35.15L314.82-35.15Q315.77-35.15 316.55-34.43 317.32-33.7 317.32-32.6L317.32-32.6Q317.32-32.2 317.19-31.83 317.07-31.45 316.82-31.05L316.82-31.05 305.37-14.85 306.17-17.8 306.17-2.55Q306.17-1.45 305.42-0.73 304.67 0 303.72 0L303.72 0Q302.67 0 301.94-0.73 301.22-1.45 301.22-2.55L301.22-2.55 301.22-17.4 301.57-15.95 290.52-30.7Q290.12-31.25 289.97-31.73 289.82-32.2 289.82-32.65L289.82-32.65Q289.82-33.75 290.69-34.45 291.57-35.15 292.47-35.15L292.47-35.15Q293.67-35.15 294.52-34L294.52-34 304.52-20.3 303.32-20.45 312.72-33.95Q313.57-35.15 314.82-35.15ZM344.57-13.15L344.57-13.15Q344.57-9.15 342.79-6.08 341.02-3 338.02-1.25 335.02 0.5 331.27 0.5L331.27 0.5Q327.57 0.5 324.54-1.25 321.52-3 319.74-6.08 317.97-9.15 317.97-13.15L317.97-13.15Q317.97-17.2 319.74-20.28 321.52-23.35 324.54-25.13 327.57-26.9 331.27-26.9L331.27-26.9Q335.02-26.9 338.02-25.13 341.02-23.35 342.79-20.28 344.57-17.2 344.57-13.15ZM339.57-13.15L339.57-13.15Q339.57-15.9 338.47-17.93 337.37-19.95 335.49-21.13 333.62-22.3 331.27-22.3L331.27-22.3Q328.97-22.3 327.09-21.13 325.22-19.95 324.09-17.93 322.97-15.9 322.97-13.15L322.97-13.15Q322.97-10.5 324.09-8.45 325.22-6.4 327.09-5.25 328.97-4.1 331.27-4.1L331.27-4.1Q333.62-4.1 335.49-5.25 337.37-6.4 338.47-8.45 339.57-10.5 339.57-13.15ZM369.56-26.3L369.56-26.3Q370.61-26.3 371.34-25.58 372.06-24.85 372.06-23.75L372.06-23.75 372.06-10.6Q372.06-5.4 369.16-2.48 366.26 0.45 360.96 0.45L360.96 0.45Q355.71 0.45 352.84-2.48 349.96-5.4 349.96-10.6L349.96-10.6 349.96-23.75Q349.96-24.85 350.66-25.58 351.36-26.3 352.46-26.3L352.46-26.3Q353.51-26.3 354.24-25.58 354.96-24.85 354.96-23.75L354.96-23.75 354.96-10.6Q354.96-7.35 356.49-5.75 358.01-4.15 360.96-4.15L360.96-4.15Q363.96-4.15 365.51-5.75 367.06-7.35 367.06-10.6L367.06-10.6 367.06-23.75Q367.06-24.85 367.76-25.58 368.46-26.3 369.56-26.3ZM381.51 0L381.51 0Q380.41 0 379.71-0.73 379.01-1.45 379.01-2.55L379.01-2.55 379.01-23.75Q379.01-24.85 379.71-25.58 380.41-26.3 381.51-26.3L381.51-26.3Q382.56-26.3 383.29-25.58 384.01-24.85 384.01-23.75L384.01-23.75 384.01-18.15 383.51-20.3Q383.91-21.7 384.74-22.9 385.56-24.1 386.71-25 387.86-25.9 389.29-26.4 390.71-26.9 392.26-26.9L392.26-26.9Q393.56-26.9 394.51-26.2 395.46-25.5 395.46-24.45L395.46-24.45Q395.46-23.1 394.76-22.48 394.06-21.85 393.21-21.85L393.21-21.85Q392.46-21.85 391.76-22.18 391.06-22.5 390.11-22.5L390.11-22.5Q389.06-22.5 387.96-21.95 386.86-21.4 385.96-20.33 385.06-19.25 384.54-17.8 384.01-16.35 384.01-14.55L384.01-14.55 384.01-2.55Q384.01-1.45 383.29-0.73 382.56 0 381.51 0ZM398.36-4.1L398.36-4.1Q397.91-4.8 397.96-5.73 398.01-6.65 399.01-7.3L399.01-7.3Q399.71-7.75 400.48-7.68 401.26-7.6 401.96-6.9L401.96-6.9Q403.36-5.35 405.08-4.45 406.81-3.55 409.26-3.55L409.26-3.55Q410.26-3.6 411.31-3.88 412.36-4.15 413.11-4.88 413.86-5.6 413.86-7L413.86-7Q413.86-8.25 413.06-9 412.26-9.75 410.96-10.23 409.66-10.7 408.16-11.1L408.16-11.1Q406.56-11.55 404.93-12.1 403.31-12.65 402.01-13.53 400.71-14.4 399.88-15.8 399.06-17.2 399.06-19.25L399.06-19.25Q399.06-21.6 400.38-23.3 401.71-25 403.83-25.95 405.96-26.9 408.46-26.9L408.46-26.9Q409.91-26.9 411.51-26.53 413.11-26.15 414.61-25.35 416.11-24.55 417.21-23.25L417.21-23.25Q417.71-22.6 417.78-21.7 417.86-20.8 416.96-20.1L416.96-20.1Q416.36-19.6 415.51-19.65 414.66-19.7 414.11-20.2L414.11-20.2Q413.16-21.4 411.66-22.08 410.16-22.75 408.26-22.75L408.26-22.75Q407.31-22.75 406.28-22.48 405.26-22.2 404.56-21.5 403.86-20.8 403.86-19.45L403.86-19.45Q403.86-18.2 404.68-17.45 405.51-16.7 406.86-16.2 408.21-15.7 409.81-15.3L409.81-15.3Q411.36-14.9 412.88-14.35 414.41-13.8 415.63-12.93 416.86-12.05 417.63-10.68 418.41-9.3 418.41-7.2L418.41-7.2Q418.41-4.75 416.98-3.03 415.56-1.3 413.38-0.4 411.21 0.5 408.81 0.5L408.81 0.5Q405.96 0.5 403.13-0.53 400.31-1.55 398.36-4.1ZM435.81 0.5L435.81 0.5Q431.71 0.5 428.63-1.23 425.56-2.95 423.88-5.98 422.21-9 422.21-12.9L422.21-12.9Q422.21-17.3 423.98-20.43 425.76-23.55 428.63-25.23 431.51-26.9 434.71-26.9L434.71-26.9Q437.11-26.9 439.33-25.93 441.56-24.95 443.26-23.23 444.96-21.5 445.96-19.18 446.96-16.85 447.01-14.1L447.01-14.1Q446.96-13.1 446.21-12.45 445.46-11.8 444.46-11.8L444.46-11.8 425.06-11.8 423.86-16.05 442.66-16.05 441.71-15.15 441.71-16.4Q441.56-18.15 440.51-19.48 439.46-20.8 437.93-21.53 436.41-22.25 434.71-22.25L434.71-22.25Q433.21-22.25 431.81-21.78 430.41-21.3 429.36-20.25 428.31-19.2 427.66-17.48 427.01-15.75 427.01-13.2L427.01-13.2Q427.01-10.45 428.16-8.4 429.31-6.35 431.26-5.23 433.21-4.1 435.61-4.1L435.61-4.1Q437.41-4.1 438.61-4.48 439.81-4.85 440.61-5.4 441.41-5.95 442.01-6.45L442.01-6.45Q442.81-6.9 443.51-6.9L443.51-6.9Q444.41-6.9 445.01-6.28 445.61-5.65 445.61-4.8L445.61-4.8Q445.61-3.7 444.51-2.8L444.51-2.8Q443.16-1.5 440.78-0.5 438.41 0.5 435.81 0.5ZM457.8-34.45L457.8-2.55Q457.8-1.45 457.08-0.73 456.35 0 455.3 0L455.3 0Q454.25 0 453.53-0.73 452.8-1.45 452.8-2.55L452.8-2.55 452.8-34.45Q452.8-35.55 453.55-36.27 454.3-37 455.35-37L455.35-37Q456.45-37 457.13-36.27 457.8-35.55 457.8-34.45L457.8-34.45ZM477.5-36.95L477.5-36.95Q478.45-36.95 479.45-36.7 480.45-36.45 481.13-35.88 481.8-35.3 481.8-34.3L481.8-34.3Q481.8-33.3 481.2-32.68 480.6-32.05 479.8-32.05L479.8-32.05Q479.3-32.05 478.45-32.27 477.6-32.5 476.75-32.5L476.75-32.5Q475.6-32.5 474.9-31.98 474.2-31.45 473.9-30.68 473.6-29.9 473.6-29.15L473.6-29.15 473.6-2.55Q473.6-1.45 472.88-0.73 472.15 0 471.1 0L471.1 0Q470 0 469.3-0.73 468.6-1.45 468.6-2.55L468.6-2.55 468.6-29.1Q468.6-32.55 470.88-34.75 473.15-36.95 477.5-36.95ZM465.55-25.85L478.5-25.85Q479.5-25.85 480.15-25.2 480.8-24.55 480.8-23.55L480.8-23.55Q480.8-22.55 480.15-21.9 479.5-21.25 478.5-21.25L478.5-21.25 465.55-21.25Q464.6-21.25 463.93-21.9 463.25-22.55 463.25-23.55L463.25-23.55Q463.25-24.55 463.93-25.2 464.6-25.85 465.55-25.85L465.55-25.85Z" opacity="1" transform="matrix(1,0,0,1,0,0)" fill="#ed3f3f" class="wordmark-text-0" data-fill-palette-color="primary" id="text-0"></path></svg></g></svg></g></svg></g></svg></g><g transform="matrix(1,0,0,1,63.63712006745503,0)"><svg viewBox="0 0 31.117678850876583 34.360239436745054" height="34.360239436745054" width="31.117678850876583"><g><svg xmlns="http://www.w3.org/2000/svg" xmlns:xlink="http://www.w3.org/1999/xlink" version="1.1" x="0" y="0" viewBox="10.260769515458676 6.000000000000002 79.60491590949057 87.9" enable-background="new 0 0 100 100" xml:space="preserve" height="34.360239436745054" width="31.117678850876583" class="icon-icon-0" data-fill-palette-color="accent" id="icon-0"><g fill="#fd0707" data-fill-palette-color="accent"><path d="M71.6 29.5c-5.3-7.2-6.8-7.2-7.3-7.2-0.8 0-1.5 0.6-1.6 1.4-0.7 6.1-3.2 7.9-6.7 10.3-0.3 0.2-0.6 0.4-0.9 0.6-1.6-9.9-14-18.3-14.6-18.7-0.4-0.3-0.9-0.3-1.4-0.1-0.5 0.2-0.8 0.6-0.9 1.1 0 0.1-2.9 14.8-12.9 23.4C17 47.5 12.5 55.4 12.1 63.7c-0.7 11.7 6.8 20 7.3 20.6 0.2 0.3 7.1 8.3 20.3 9.6 0-0.5 0.3-4.8 0.3-4.8-0.2-2.2-0.5-6-0.7-7.8 0-0.3-0.4-0.4-0.6-0.2-2 2.4-4.1 4.6-7.6 3.4-4.5-1.5-7.7-6.8-9.6-10.8-0.8-1.6-1.9-3.7-1.7-5.5 0.1-2.1 1.7-3.9 3.7-4.3 4.7-1 7.7 5.1 4 8.2 1.2 1.2 2.4 2.7 3.7 3.8 0.2 0.2 0.6 0.1 0.8-0.1 2.2-3.5 4.5-7.6 7.6-10.3 1.3-1.1 2.9-2.2 4.5-2.7 0.3-0.1 0.6-0.1 0.9-0.2-3.6-1.6-6-5.2-6-9.4 0-6.1 5.3-10.9 11.5-10.2 4.8 0.5 8.6 4.4 9 9.1 0.5 4.6-2.1 8.7-6 10.4 0.3 0.1 0.5 0.1 0.8 0.2 1.6 0.5 3.2 1.6 4.5 2.7 3.1 2.7 5.4 6.8 7.6 10.3 0.2 0.3 0.5 0.3 0.8 0.1 1.3-1.1 2.6-2.6 3.7-3.8-3.7-3.1-0.7-9.3 4-8.2 2 0.4 3.6 2.2 3.7 4.3 0.1 1.8-1 3.9-1.7 5.5-1.9 4-5.1 9.3-9.6 10.8-3.4 1.1-5.5-1-7.4-3.2-0.2-0.3-0.7-0.1-0.7 0.2-0.1 2.1-0.2 5.9-0.4 7.5 0 0 0.1 0.8 0.2 1.8 0 0.5 0.2 2.5 0.2 3 13.1-1.3 19.9-9.1 20.3-9.5 0 0 0 0 0.1-0.1 10.4-11.5 6.6-27.2 1.6-38.5C77.9 38.4 73.8 32.4 71.6 29.5z" fill="#fd0707" data-fill-palette-color="accent"></path><path d="M19.6 41.5C19.6 41.5 19.6 41.5 19.6 41.5L19.6 41.5c0.5 0 0.8-0.3 0.8-0.7 0-0.1 0-0.2 0-0.3-0.1-0.6-0.8-4-0.2-8.5 0.4-2.9-0.2-5.2-1.6-6.8-2.2-2.5-5.7-2.7-7.1-2.7-0.4 0-0.6 0-0.6 0-0.3 0-0.5 0.2-0.6 0.5-0.1 0.3 0 0.6 0.2 0.8 1.2 1.3 0.9 3.1 0.5 5.4-0.2 1.5-0.5 3.1-0.4 4.8C10.9 39.3 16.6 41.2 19.6 41.5z" fill="#fd0707" data-fill-palette-color="accent"></path><path d="M89.8 19c-0.1-0.3-0.3-0.5-0.6-0.5 0 0-0.3 0-0.8 0-1.4 0-4 0.3-5.9 2.3-1.5 1.6-2.2 3.9-2.1 6.9 0.2 4.7-0.8 6.9-0.8 6.9-0.1 0.2-0.1 0.5 0 0.7 0.1 0.2 0.3 0.4 0.6 0.4 0 0 0.4 0 0.9 0 1.6 0 6.9-0.4 7.7-5.8 0.2-1.6 0.1-3.3 0-4.7-0.2-2.2-0.3-4.2 0.9-5.4C89.9 19.6 89.9 19.3 89.8 19z" fill="#fd0707" data-fill-palette-color="accent"></path><path d="M27.8 26.4c0 0.3 0.2 0.5 0.4 0.6 0.1 0.1 0.2 0.1 0.3 0.1 0.1 0 0.3 0 0.4-0.1 2.4-1.6 6.3-5.9 3.6-10.6-0.8-1.4-1.9-2.6-2.9-3.7C28.1 11.1 26.8 9.6 27 8c0-0.3-0.1-0.5-0.3-0.7-0.2-0.1-0.5-0.2-0.8 0-0.1 0.1-3.2 2-3.8 5.5-0.4 2.3 0.5 4.7 2.5 7.1C27.6 23.4 27.8 26.4 27.8 26.4z" fill="#fd0707" data-fill-palette-color="accent"></path><path d="M58.7 24.8c0.1 0 0.1 0 0.2 0l0 0c0.4 0 0.8-0.3 0.8-0.7 0-0.1 0-0.1 0-0.2 0-0.4 0.1-2.8 1.3-6.5 0.9-2.7 0.8-5.1-0.4-7-1.7-2.9-4.9-4.4-5.1-4.4-0.2 0-0.4 0-0.6 0.1-0.2 0.1-0.3 0.3-0.3 0.5-0.2 2.5-0.9 4.3-1.6 5.5-0.6 1-1.1 2.1-1.4 3.9C50.8 22.3 58.4 24.7 58.7 24.8z" fill="#fd0707" data-fill-palette-color="accent"></path></g></svg></g></svg></g><g></g></svg></g></svg></g><g><path d="M1.849 97.5v0c0.082-0.235 0.228-0.463 0.437-0.683 0.213-0.211 0.453-0.351 0.718-0.419v0l14.186-3.528-0.504 1.253-8.783-11.735c-0.348-0.473-0.435-0.958-0.261-1.455v0c0.139-0.398 0.406-0.701 0.801-0.907 0.397-0.213 0.814-0.243 1.252-0.09v0l17.86 6.245c0.438 0.153 0.751 0.42 0.94 0.802 0.189 0.381 0.204 0.801 0.044 1.257v0c-0.167 0.477-0.444 0.809-0.832 0.996-0.388 0.187-0.801 0.204-1.238 0.051v0l-15.117-5.286 0.538-0.879 7.702 10.049c0.128 0.199 0.219 0.432 0.272 0.7 0.055 0.261 0.031 0.509-0.074 0.744v0c-0.056 0.222-0.189 0.425-0.399 0.608-0.211 0.183-0.428 0.312-0.652 0.387v0l-12.046 2.88-0.945-1.133 15.949 5.577c0.438 0.153 0.753 0.414 0.947 0.782 0.191 0.375 0.212 0.778 0.061 1.209v0c-0.146 0.418-0.41 0.711-0.791 0.878-0.383 0.174-0.794 0.184-1.231 0.031v0l-17.86-6.245c-0.418-0.146-0.719-0.427-0.903-0.844-0.193-0.412-0.217-0.827-0.071-1.245z" fill="#fd0707" data-fill-palette-color="accent"></path><path d="M32.615 64.476v0c1.447 0.857 2.536 1.936 3.269 3.238 0.732 1.302 1.096 2.684 1.092 4.145-0.014 1.463-0.423 2.873-1.228 4.231v0c-0.793 1.339-1.83 2.37-3.109 3.091-1.286 0.718-2.676 1.069-4.17 1.053-1.494-0.016-2.964-0.453-4.411-1.31v0c-1.47-0.871-2.572-1.957-3.305-3.259-0.732-1.302-1.096-2.692-1.09-4.168 0.006-1.476 0.405-2.884 1.199-4.224v0c0.804-1.357 1.85-2.39 3.138-3.099 1.285-0.703 2.674-1.046 4.168-1.029 1.494 0.016 2.976 0.46 4.447 1.331zM31.007 67.19v0c-1-0.592-1.984-0.906-2.953-0.94-0.968-0.035-1.868 0.16-2.698 0.585-0.825 0.428-1.489 1.068-1.994 1.919v0c-0.494 0.833-0.73 1.715-0.709 2.644 0.027 0.933 0.285 1.821 0.774 2.665 0.492 0.839 1.239 1.554 2.239 2.147v0c0.958 0.568 1.93 0.869 2.913 0.905 0.987 0.03 1.891-0.171 2.709-0.603 0.819-0.432 1.475-1.065 1.969-1.898v0c0.504-0.851 0.749-1.74 0.734-2.665-0.015-0.925-0.276-1.808-0.784-2.648-0.508-0.84-1.241-1.543-2.2-2.111z" fill="#fd0707" data-fill-palette-color="accent"></path><path d="M29.431 55.311v0l4.622-5.806c0.263-0.33 0.594-0.518 0.992-0.563 0.399-0.045 0.763 0.064 1.093 0.326v0c0.314 0.25 0.488 0.57 0.523 0.96 0.04 0.394-0.072 0.757-0.334 1.087v0l-4.622 5.806c-0.263 0.33-0.594 0.518-0.992 0.563-0.399 0.045-0.755-0.057-1.069-0.307v0c-0.33-0.263-0.515-0.591-0.555-0.986-0.034-0.39 0.08-0.75 0.342-1.08zM28.278 50.161v0c0.289-0.363 0.645-0.566 1.068-0.609 0.425-0.033 0.816 0.092 1.173 0.377v0l11.466 9.126c0.298 0.237 0.577 0.375 0.837 0.415 0.262 0.049 0.494 0.013 0.697-0.109 0.203-0.122 0.375-0.272 0.517-0.45v0c0.147-0.184 0.243-0.372 0.291-0.565 0.043-0.187 0.144-0.381 0.303-0.581v0c0.155-0.195 0.389-0.305 0.701-0.331 0.313-0.016 0.627 0.101 0.941 0.352v0c0.395 0.315 0.544 0.783 0.448 1.404-0.091 0.626-0.333 1.185-0.726 1.678v0c-0.224 0.281-0.511 0.592-0.861 0.932-0.35 0.34-0.766 0.606-1.247 0.799-0.479 0.202-1.029 0.242-1.648 0.121-0.624-0.116-1.331-0.489-2.121-1.118v0l-11.563-9.205c-0.357-0.284-0.563-0.643-0.617-1.074-0.049-0.428 0.065-0.815 0.341-1.162z" fill="#fd0707" data-fill-palette-color="accent"></path><path d="M42.117 42.512l9.843 9.257c0.338 0.318 0.516 0.689 0.534 1.115 0.023 0.42-0.125 0.799-0.443 1.137v0c-0.303 0.323-0.67 0.49-1.1 0.503-0.43 0.013-0.814-0.139-1.152-0.456v0l-9.844-9.258c-0.338-0.318-0.513-0.692-0.526-1.122-0.018-0.435 0.124-0.814 0.427-1.136v0c0.318-0.338 0.689-0.506 1.116-0.504 0.426-0.008 0.807 0.147 1.145 0.464zM38.323 41.152v0c-0.417 0.444-0.801 0.69-1.152 0.74-0.351 0.05-0.718-0.105-1.101-0.465v0l-0.37-0.348c-0.383-0.36-0.551-0.722-0.504-1.086 0.053-0.359 0.28-0.753 0.684-1.181v0c0.431-0.459 0.822-0.713 1.173-0.763 0.346-0.045 0.703 0.106 1.071 0.451v0l0.371 0.349c0.398 0.374 0.576 0.736 0.532 1.085-0.038 0.354-0.273 0.76-0.704 1.218z" fill="#fd0707" data-fill-palette-color="accent"></path><path d="M46.525 36.229v0c0.243-0.205 0.529-0.333 0.858-0.383 0.324-0.056 0.645 0.004 0.964 0.178v0l11.168 5.575-0.273 0.61-3.706-12.198c-0.223-0.726-0.078-1.291 0.432-1.694v0c0.323-0.272 0.677-0.399 1.064-0.381 0.386 0.018 0.715 0.189 0.987 0.512v0c0.085 0.101 0.153 0.214 0.207 0.342 0.057 0.133 0.102 0.267 0.135 0.402v0l4.123 14.208c0.194 0.66 0.063 1.208-0.391 1.646v0c-0.217 0.237-0.499 0.384-0.849 0.443-0.349 0.059-0.7 0.006-1.054-0.157v0l-13.276-6.499c-0.085-0.037-0.191-0.092-0.318-0.167-0.116-0.074-0.237-0.185-0.361-0.333v0c-0.201-0.238-0.295-0.57-0.283-0.997 0.017-0.431 0.208-0.8 0.573-1.107z" fill="#fd0707" data-fill-palette-color="accent"></path><path d="M73.878 16.656v0c0.378-0.231 0.776-0.297 1.194-0.196 0.419 0.101 0.749 0.349 0.991 0.744v0l7.127 11.64c0.242 0.395 0.313 0.802 0.212 1.221-0.101 0.419-0.34 0.744-0.717 0.975v0c-0.395 0.242-0.796 0.309-1.204 0.201-0.413-0.104-0.74-0.354-0.982-0.75v0l-1.187-1.938 0.589-0.251c0.199 0.325 0.289 0.764 0.272 1.318-0.018 0.554-0.139 1.152-0.363 1.793-0.224 0.64-0.569 1.27-1.035 1.887-0.46 0.614-1.041 1.136-1.743 1.566v0c-1.239 0.759-2.547 1.121-3.922 1.087-1.382-0.03-2.698-0.425-3.95-1.184-1.255-0.765-2.316-1.855-3.184-3.271v0c-0.892-1.458-1.39-2.913-1.493-4.368-0.103-1.454 0.143-2.794 0.74-4.018 0.593-1.231 1.491-2.215 2.695-2.953v0c0.773-0.473 1.565-0.784 2.375-0.93 0.807-0.153 1.573-0.18 2.299-0.082 0.726 0.099 1.36 0.287 1.903 0.564 0.533 0.274 0.92 0.609 1.162 1.004v0l-0.783 0.589-1.501-2.452c-0.228-0.372-0.298-0.771-0.211-1.198 0.082-0.423 0.32-0.756 0.716-0.998zM75.838 32.201v0c0.85-0.52 1.46-1.194 1.83-2.021 0.374-0.821 0.51-1.712 0.408-2.671-0.095-0.964-0.423-1.903-0.982-2.818v0c-0.571-0.932-1.262-1.657-2.074-2.175-0.806-0.521-1.659-0.802-2.56-0.842-0.901-0.041-1.776 0.199-2.626 0.72v0c-0.82 0.502-1.423 1.167-1.809 1.995-0.385 0.828-0.529 1.719-0.431 2.674 0.092 0.958 0.423 1.903 0.993 2.836v0c0.56 0.915 1.248 1.634 2.063 2.156 0.809 0.527 1.664 0.81 2.566 0.851 0.905 0.046 1.779-0.189 2.622-0.705z" fill="#fd0707" data-fill-palette-color="accent"></path><path d="M82.081 13.1v0l6.813-2.939c0.388-0.167 0.768-0.177 1.141-0.029 0.373 0.148 0.643 0.416 0.81 0.804v0c0.159 0.368 0.162 0.733 0.008 1.093-0.151 0.366-0.42 0.633-0.808 0.8v0l-6.813 2.939c-0.388 0.167-0.768 0.177-1.141 0.029-0.373-0.148-0.639-0.406-0.798-0.775v0c-0.167-0.388-0.175-0.765-0.024-1.131 0.154-0.36 0.424-0.624 0.812-0.791zM83.493 8.015v0c0.426-0.184 0.835-0.195 1.229-0.033 0.39 0.171 0.676 0.466 0.857 0.885v0l5.804 13.456c0.151 0.349 0.332 0.603 0.543 0.761 0.208 0.167 0.429 0.244 0.665 0.233 0.236-0.011 0.459-0.062 0.669-0.153v0c0.216-0.093 0.39-0.214 0.522-0.361 0.126-0.145 0.306-0.268 0.542-0.369v0c0.229-0.099 0.487-0.086 0.774 0.039 0.284 0.134 0.505 0.385 0.664 0.753v0c0.2 0.464 0.111 0.947-0.268 1.449-0.376 0.509-0.853 0.888-1.431 1.138v0c-0.33 0.142-0.73 0.281-1.199 0.415-0.469 0.135-0.961 0.173-1.476 0.117-0.518-0.048-1.021-0.272-1.51-0.671-0.495-0.397-0.943-1.059-1.343-1.987v0l-5.854-13.57c-0.181-0.419-0.193-0.832-0.037-1.239 0.159-0.4 0.442-0.688 0.849-0.863z" fill="#fd0707" data-fill-palette-color="accent"></path><path d="M99.304 7.799l4.312 12.807c0.148 0.439 0.129 0.851-0.056 1.234-0.178 0.381-0.487 0.646-0.926 0.794v0c-0.42 0.141-0.822 0.116-1.208-0.076-0.386-0.191-0.652-0.507-0.801-0.946v0l-4.311-12.807c-0.148-0.439-0.126-0.852 0.065-1.237 0.189-0.392 0.494-0.659 0.914-0.8v0c0.439-0.148 0.846-0.121 1.221 0.081 0.379 0.194 0.643 0.51 0.79 0.95zM96.601 4.81v0c-0.577 0.194-1.032 0.231-1.365 0.11-0.333-0.122-0.583-0.431-0.751-0.93v0l-0.162-0.482c-0.168-0.498-0.145-0.897 0.068-1.195 0.216-0.292 0.602-0.531 1.16-0.719v0c0.597-0.201 1.062-0.241 1.394-0.119 0.326 0.124 0.57 0.425 0.732 0.904v0l0.162 0.482c0.174 0.518 0.16 0.921-0.042 1.207-0.2 0.294-0.599 0.541-1.196 0.742z" fill="#fd0707" data-fill-palette-color="accent"></path><path d="M123.007 9.528v0c0.339 1.647 0.274 3.179-0.197 4.597-0.471 1.418-1.248 2.617-2.332 3.596-1.092 0.974-2.411 1.62-3.956 1.939v0c-1.525 0.314-2.985 0.241-4.379-0.221-1.396-0.468-2.591-1.26-3.584-2.377-0.993-1.116-1.659-2.498-1.999-4.145v0c-0.345-1.674-0.282-3.22 0.189-4.638 0.471-1.418 1.254-2.622 2.35-3.61 1.096-0.989 2.407-1.64 3.931-1.955v0c1.545-0.318 3.013-0.239 4.404 0.237 1.384 0.478 2.573 1.275 3.566 2.392 0.993 1.116 1.662 2.512 2.007 4.185zM119.917 10.165v0c-0.235-1.138-0.665-2.078-1.291-2.818-0.626-0.74-1.375-1.274-2.248-1.603-0.872-0.322-1.792-0.383-2.761-0.183v0c-0.949 0.196-1.76 0.613-2.433 1.253-0.672 0.647-1.156 1.436-1.452 2.366-0.289 0.928-0.316 1.962-0.082 3.1v0c0.225 1.091 0.655 2.013 1.291 2.765 0.642 0.751 1.398 1.284 2.268 1.599 0.87 0.315 1.78 0.375 2.729 0.18v0c0.969-0.2 1.791-0.616 2.466-1.25 0.675-0.634 1.152-1.421 1.431-2.362 0.279-0.941 0.307-1.957 0.082-3.047z" fill="#fd0707" data-fill-palette-color="accent"></path><path d="M136.506 0.013v0c1.493-0.076 2.662 0.176 3.51 0.757 0.854 0.58 1.47 1.38 1.847 2.4 0.378 1.027 0.599 2.18 0.664 3.458v0l0.431 8.458c0.024 0.463-0.109 0.854-0.398 1.174-0.289 0.32-0.654 0.491-1.096 0.513v0c-0.463 0.024-0.847-0.109-1.153-0.399-0.313-0.289-0.481-0.665-0.504-1.128v0l-0.429-8.427c-0.038-0.753-0.176-1.425-0.415-2.015-0.245-0.59-0.632-1.056-1.162-1.396-0.537-0.34-1.268-0.486-2.194-0.439v0c-0.864 0.044-1.611 0.266-2.242 0.665-0.631 0.399-1.118 0.909-1.46 1.529-0.336 0.62-0.484 1.306-0.446 2.059v0l0.429 8.427c0.024 0.463-0.109 0.854-0.398 1.174-0.289 0.32-0.654 0.491-1.096 0.513v0c-0.463 0.024-0.847-0.109-1.153-0.398-0.313-0.289-0.481-0.665-0.504-1.128v0l-0.681-13.371c-0.024-0.463 0.105-0.854 0.387-1.174 0.275-0.319 0.644-0.49 1.107-0.513v0c0.442-0.023 0.823 0.111 1.142 0.399 0.32 0.289 0.491 0.664 0.515 1.127v0l0.09 1.762-0.554 0.351c0.128-0.471 0.364-0.954 0.706-1.45 0.342-0.489 0.766-0.953 1.269-1.394 0.504-0.434 1.079-0.789 1.723-1.065 0.637-0.275 1.326-0.431 2.065-0.469z" fill="#fd0707" data-fill-palette-color="accent"></path><path d="M147.437 14.506v0c-0.163-0.316-0.214-0.665-0.154-1.048 0.061-0.39 0.315-0.698 0.762-0.924v0c0.316-0.163 0.633-0.21 0.953-0.143 0.32 0.067 0.613 0.261 0.88 0.581v0c0.519 0.707 1.121 1.286 1.805 1.738 0.684 0.452 1.539 0.731 2.564 0.836v0c0.422 0.022 0.859-0.003 1.312-0.075 0.452-0.072 0.849-0.244 1.19-0.514 0.348-0.271 0.551-0.698 0.611-1.284v0c0.053-0.523-0.072-0.96-0.378-1.311-0.299-0.343-0.713-0.643-1.243-0.899-0.523-0.255-1.09-0.497-1.699-0.727v0c-0.648-0.261-1.301-0.54-1.96-0.836-0.658-0.304-1.24-0.666-1.746-1.086-0.507-0.42-0.905-0.941-1.197-1.562-0.284-0.627-0.382-1.367-0.294-2.221v0c0.101-0.984 0.466-1.806 1.096-2.465 0.63-0.652 1.409-1.132 2.338-1.441 0.929-0.309 1.916-0.409 2.963-0.302v0c0.613 0.063 1.245 0.207 1.896 0.433 0.652 0.227 1.277 0.537 1.877 0.933 0.592 0.401 1.091 0.897 1.496 1.488v0c0.178 0.296 0.266 0.632 0.262 1.007-0.011 0.381-0.218 0.701-0.619 0.96v0c-0.276 0.18-0.592 0.242-0.948 0.184-0.349-0.057-0.63-0.2-0.843-0.43v0c-0.348-0.543-0.821-0.988-1.418-1.334-0.598-0.346-1.296-0.56-2.094-0.642v0c-0.399-0.041-0.818-0.028-1.256 0.039-0.439 0.073-0.821 0.243-1.147 0.509-0.326 0.259-0.517 0.671-0.575 1.235v0c-0.053 0.523 0.079 0.961 0.398 1.313 0.312 0.352 0.739 0.66 1.283 0.924 0.543 0.271 1.139 0.523 1.79 0.757v0c0.637 0.232 1.264 0.498 1.88 0.797 0.61 0.292 1.155 0.647 1.634 1.064 0.471 0.424 0.843 0.938 1.115 1.543 0.264 0.611 0.352 1.357 0.261 2.238v0c-0.105 1.026-0.493 1.869-1.166 2.531-0.673 0.662-1.483 1.135-2.43 1.421-0.947 0.279-1.922 0.367-2.927 0.265v0c-1.198-0.122-2.367-0.457-3.507-1.005-1.14-0.548-2.062-1.396-2.765-2.547z" fill="#fd0707" data-fill-palette-color="accent"></path><path d="M194.255 5.294v0c0.379 0.131 0.673 0.393 0.881 0.787 0.208 0.394 0.237 0.81 0.086 1.248v0c-0.056 0.164-0.132 0.309-0.228 0.437-0.104 0.132-0.234 0.263-0.388 0.393v0l-10.173 7.305 1.087-1.59-3.141 9.105c-0.151 0.438-0.427 0.749-0.827 0.933-0.4 0.184-0.787 0.212-1.16 0.083v0c-0.419-0.144-0.722-0.41-0.91-0.797-0.195-0.389-0.217-0.803-0.066-1.242v0l3.06-8.869-0.082 0.938-3.567-11.079c-0.08-0.277-0.117-0.52-0.111-0.729 0.004-0.203 0.038-0.397 0.102-0.58v0c0.151-0.438 0.448-0.735 0.889-0.89 0.444-0.162 0.845-0.18 1.205-0.057v0c0.477 0.165 0.807 0.535 0.989 1.11v0l3.142 10.241-0.685-0.336 8.394-6.128c0.505-0.36 1.006-0.454 1.503-0.283z" fill="#fd0707" data-fill-palette-color="accent"></path><path d="M208.291 27.714v0c-0.771 1.494-1.786 2.644-3.044 3.452-1.258 0.807-2.616 1.25-4.074 1.33-1.462 0.071-2.893-0.256-4.295-0.979v0c-1.383-0.714-2.472-1.689-3.267-2.925-0.792-1.242-1.223-2.609-1.293-4.102-0.07-1.492 0.28-2.986 1.051-4.48v0c0.784-1.519 1.805-2.681 3.063-3.488 1.258-0.807 2.623-1.25 4.097-1.33 1.474-0.08 2.903 0.237 4.286 0.952v0c1.402 0.724 2.494 1.708 3.276 2.952 0.776 1.242 1.199 2.609 1.27 4.102 0.07 1.492-0.286 2.998-1.07 4.516zM205.487 26.267v0c0.533-1.033 0.789-2.034 0.768-3.003-0.021-0.969-0.268-1.856-0.741-2.66-0.475-0.798-1.153-1.425-2.032-1.878v0c-0.861-0.444-1.754-0.629-2.68-0.555-0.929 0.081-1.801 0.39-2.616 0.927-0.808 0.54-1.479 1.327-2.013 2.36v0c-0.511 0.99-0.756 1.977-0.735 2.961 0.027 0.988 0.28 1.877 0.759 2.67 0.479 0.792 1.148 1.411 2.01 1.855v0c0.879 0.454 1.78 0.647 2.703 0.578 0.923-0.068 1.789-0.381 2.598-0.937 0.809-0.556 1.469-1.329 1.979-2.318z" fill="#fd0707" data-fill-palette-color="accent"></path><path d="M227.636 31.335v0c0.358 0.26 0.571 0.603 0.639 1.028 0.068 0.425-0.035 0.825-0.307 1.201v0l-4.876 6.72c-1.284 1.77-2.783 2.793-4.498 3.071-1.709 0.282-3.468-0.234-5.276-1.546v0c-1.787-1.296-2.808-2.798-3.065-4.506-0.257-1.708 0.257-3.447 1.54-5.216v0l4.876-6.721c0.272-0.375 0.618-0.599 1.038-0.67 0.414-0.076 0.809 0.022 1.184 0.295v0c0.358 0.26 0.571 0.603 0.639 1.028 0.068 0.425-0.035 0.825-0.307 1.2v0l-4.876 6.721c-0.805 1.109-1.143 2.124-1.017 3.045 0.127 0.921 0.691 1.745 1.694 2.472v0c1.025 0.744 1.998 1.035 2.918 0.874 0.926-0.157 1.792-0.79 2.596-1.899v0l4.876-6.721c0.272-0.375 0.615-0.601 1.03-0.676 0.42-0.072 0.817 0.029 1.192 0.3z" fill="#fd0707" data-fill-palette-color="accent"></path><path d="M224.044 50.42v0c-0.333-0.323-0.498-0.694-0.495-1.116-0.002-0.426 0.159-0.805 0.482-1.137v0l9.319-9.613c0.323-0.333 0.697-0.505 1.122-0.517 0.421-0.016 0.797 0.137 1.13 0.46v0c0.318 0.308 0.48 0.678 0.487 1.108 0.007 0.43-0.151 0.812-0.474 1.145v0l-2.463 2.541 0.723-1.193c0.533-0.312 1.1-0.528 1.7-0.65 0.605-0.117 1.211-0.141 1.819-0.073 0.613 0.064 1.207 0.226 1.784 0.486 0.577 0.27 1.099 0.631 1.565 1.084v0c0.392 0.38 0.629 0.817 0.71 1.31 0.086 0.488-0.025 0.891-0.333 1.209v0c-0.395 0.407-0.791 0.602-1.188 0.584-0.392-0.013-0.717-0.145-0.975-0.396v0c-0.229-0.222-0.401-0.481-0.518-0.777-0.117-0.306-0.32-0.599-0.608-0.879v0c-0.313-0.303-0.715-0.534-1.207-0.693-0.497-0.154-1.038-0.202-1.625-0.144-0.591 0.063-1.178 0.236-1.76 0.519-0.583 0.283-1.139 0.698-1.669 1.245v0l-5.274 5.44c-0.323 0.333-0.699 0.503-1.129 0.509-0.43 0.007-0.805-0.144-1.123-0.452z" fill="#fd0707" data-fill-palette-color="accent"></path><path d="M234.12 57.131v0c0.111-0.337 0.325-0.619 0.64-0.844 0.321-0.23 0.719-0.265 1.193-0.104v0c0.337 0.111 0.594 0.305 0.77 0.58 0.176 0.276 0.244 0.62 0.203 1.034v0c-0.14 0.866-0.132 1.701 0.025 2.506 0.157 0.805 0.557 1.61 1.201 2.415v0c0.28 0.317 0.604 0.611 0.972 0.883 0.368 0.272 0.769 0.435 1.202 0.488 0.437 0.058 0.884-0.096 1.343-0.464v0c0.411-0.329 0.634-0.725 0.671-1.188 0.036-0.454-0.041-0.96-0.23-1.517-0.185-0.552-0.409-1.126-0.673-1.721v0c-0.268-0.645-0.527-1.306-0.777-1.984-0.244-0.682-0.394-1.351-0.449-2.007-0.055-0.656 0.037-1.305 0.276-1.948 0.248-0.642 0.708-1.231 1.377-1.767v0c0.773-0.618 1.615-0.933 2.527-0.945 0.907-0.008 1.795 0.212 2.666 0.658 0.871 0.446 1.635 1.08 2.293 1.901v0c0.385 0.481 0.725 1.033 1.019 1.656 0.295 0.623 0.512 1.287 0.65 1.992 0.129 0.703 0.124 1.407-0.012 2.111v0c-0.086 0.335-0.265 0.633-0.535 0.893-0.28 0.259-0.653 0.336-1.119 0.23v0c-0.322-0.07-0.587-0.252-0.795-0.546-0.204-0.288-0.299-0.589-0.284-0.903v0c0.144-0.629 0.13-1.278-0.043-1.947-0.172-0.669-0.509-1.317-1.01-1.943v0c-0.251-0.313-0.553-0.603-0.907-0.869-0.36-0.261-0.749-0.415-1.167-0.461-0.413-0.051-0.841 0.101-1.284 0.455v0c-0.411 0.329-0.63 0.73-0.658 1.204-0.032 0.469 0.048 0.99 0.24 1.563 0.187 0.577 0.425 1.179 0.715 1.807v0c0.281 0.617 0.531 1.25 0.749 1.9 0.219 0.64 0.348 1.277 0.386 1.911 0.028 0.633-0.078 1.259-0.319 1.877-0.251 0.617-0.722 1.202-1.413 1.755v0c-0.805 0.644-1.679 0.958-2.623 0.942-0.943-0.016-1.849-0.262-2.716-0.737-0.862-0.48-1.609-1.114-2.241-1.903v0c-0.752-0.94-1.333-2.009-1.741-3.206-0.409-1.197-0.449-2.45-0.122-3.757z" fill="#fd0707" data-fill-palette-color="accent"></path><path d="M245.834 78.908v0c-0.876-1.483-1.331-2.967-1.364-4.451-0.036-1.489 0.316-2.859 1.057-4.108 0.737-1.255 1.811-2.3 3.223-3.134v0c1.596-0.943 3.151-1.428 4.663-1.453 1.512-0.025 2.88 0.304 4.103 0.987 1.224 0.683 2.177 1.603 2.86 2.759v0c0.514 0.87 0.834 1.813 0.961 2.831 0.118 1.015 0.047 2.018-0.212 3.007-0.263 0.983-0.707 1.905-1.332 2.764-0.631 0.863-1.439 1.598-2.424 2.203v0c-0.374 0.197-0.758 0.227-1.152 0.09-0.4-0.133-0.706-0.379-0.917-0.736v0l-6.235-10.552 1.929-2.02 6.04 10.222-0.798-0.228 0.679-0.401c0.6-0.427 1.028-0.973 1.285-1.64 0.257-0.666 0.355-1.351 0.294-2.054-0.065-0.709-0.281-1.373-0.647-1.992v0c-0.32-0.542-0.716-1.015-1.189-1.42-0.472-0.404-1.011-0.684-1.617-0.84-0.607-0.156-1.293-0.168-2.059-0.037-0.763 0.137-1.606 0.479-2.529 1.024v0c-0.995 0.588-1.741 1.31-2.24 2.167-0.498 0.857-0.742 1.757-0.732 2.699 0.008 0.952 0.269 1.862 0.783 2.732v0c0.387 0.655 0.778 1.16 1.171 1.514 0.394 0.354 0.777 0.614 1.149 0.78 0.369 0.176 0.711 0.319 1.025 0.431v0c0.33 0.191 0.57 0.414 0.722 0.67v0c0.194 0.328 0.241 0.666 0.141 1.014-0.096 0.354-0.299 0.623-0.609 0.806v0c-0.399 0.236-0.88 0.251-1.444 0.045v0c-0.763-0.216-1.579-0.646-2.449-1.289-0.868-0.653-1.58-1.449-2.136-2.39z" fill="#fd0707" data-fill-palette-color="accent"></path><path d="M272.749 83.06l-18.327 8.362c-0.422 0.192-0.836 0.21-1.242 0.054-0.403-0.151-0.697-0.427-0.881-0.83v0c-0.181-0.397-0.198-0.8-0.05-1.21 0.151-0.403 0.437-0.701 0.859-0.893v0l18.327-8.363c0.422-0.192 0.837-0.207 1.246-0.044 0.415 0.16 0.715 0.442 0.899 0.845v0c0.19 0.415 0.203 0.82 0.04 1.213-0.159 0.384-0.45 0.673-0.871 0.866z" fill="#fd0707" data-fill-palette-color="accent"></path><path d="M279.523 97.578v0c0.125 0.381 0.202 0.79 0.228 1.225 0.033 0.433-0.021 0.823-0.162 1.168-0.141 0.345-0.412 0.584-0.813 0.716v0c-0.401 0.132-0.765 0.121-1.093-0.034-0.33-0.161-0.548-0.402-0.654-0.724v0c-0.065-0.197-0.108-0.482-0.128-0.854-0.018-0.365-0.084-0.719-0.196-1.061v0c-0.151-0.46-0.379-0.797-0.682-1.01-0.301-0.207-0.627-0.322-0.977-0.345-0.348-0.017-0.673 0.025-0.975 0.124v0l-15.961 5.254c-0.44 0.145-0.853 0.12-1.237-0.074-0.384-0.194-0.646-0.501-0.784-0.922v0c-0.145-0.44-0.119-0.849 0.077-1.227 0.198-0.371 0.518-0.629 0.958-0.774v0l15.931-5.244c1.38-0.454 2.66-0.373 3.839 0.244 1.181 0.624 2.058 1.803 2.629 3.538zM270.5 92.605l2.556 7.768c0.132 0.401 0.11 0.776-0.066 1.126-0.172 0.341-0.458 0.577-0.859 0.709v0c-0.401 0.132-0.772 0.112-1.113-0.06-0.349-0.176-0.59-0.465-0.722-0.866v0l-2.557-7.769c-0.125-0.381-0.101-0.75 0.073-1.105 0.168-0.354 0.452-0.597 0.853-0.729v0c0.401-0.132 0.774-0.105 1.119 0.08 0.352 0.183 0.59 0.465 0.716 0.846z" fill="#fd0707" data-fill-palette-color="accent"></path><path d="M27.815 173.444v0c0.082 0.235 0.11 0.504 0.084 0.807-0.035 0.298-0.135 0.557-0.301 0.775v0l-8.896 11.599-0.386-1.294 14.181 3.705c0.567 0.154 0.937 0.479 1.111 0.975v0c0.139 0.398 0.119 0.801-0.061 1.209-0.178 0.414-0.485 0.698-0.923 0.85v0l-17.86 6.245c-0.438 0.153-0.849 0.139-1.235-0.041-0.386-0.18-0.658-0.499-0.818-0.956v0c-0.167-0.477-0.157-0.909 0.03-1.297 0.187-0.388 0.499-0.658 0.937-0.811v0l15.116-5.286 0.127 1.022-12.285-3.06c-0.224-0.075-0.441-0.201-0.649-0.378-0.206-0.17-0.341-0.379-0.406-0.627v0c-0.095-0.209-0.117-0.45-0.066-0.725 0.051-0.274 0.14-0.511 0.268-0.709v0l7.627-9.759 1.445 0.297-15.949 5.577c-0.438 0.153-0.847 0.146-1.228-0.021-0.383-0.174-0.65-0.476-0.801-0.907v0c-0.146-0.418-0.122-0.811 0.071-1.18 0.191-0.375 0.506-0.639 0.944-0.791v0l17.86-6.245c0.418-0.146 0.829-0.114 1.232 0.096 0.408 0.202 0.685 0.512 0.831 0.93z" fill="#fd0707" data-fill-palette-color="accent"></path><path d="M32.475 215.631v0c-1.447 0.857-2.917 1.293-4.411 1.31-1.494 0.016-2.88-0.329-4.159-1.035-1.276-0.716-2.316-1.752-3.12-3.11v0c-0.793-1.339-1.199-2.744-1.217-4.213-0.012-1.473 0.349-2.86 1.081-4.162 0.732-1.302 1.822-2.382 3.269-3.239v0c1.47-0.871 2.953-1.315 4.447-1.331 1.494-0.016 2.887 0.333 4.179 1.047 1.292 0.715 2.334 1.742 3.127 3.082v0c0.804 1.357 1.207 2.771 1.209 4.241-0.001 1.464-0.368 2.848-1.1 4.15-0.732 1.302-1.834 2.389-3.305 3.26zM30.868 212.916v0c1-0.592 1.748-1.305 2.244-2.137 0.496-0.833 0.757-1.715 0.784-2.648 0.021-0.929-0.221-1.819-0.725-2.67v0c-0.494-0.833-1.153-1.464-1.978-1.893-0.831-0.425-1.734-0.626-2.709-0.603-0.972 0.029-1.958 0.339-2.958 0.932v0c-0.958 0.568-1.69 1.274-2.194 2.12-0.501 0.852-0.759 1.74-0.774 2.665-0.015 0.925 0.225 1.805 0.718 2.639v0c0.504 0.851 1.166 1.493 1.985 1.924 0.819 0.432 1.718 0.627 2.698 0.585 0.98-0.042 1.95-0.347 2.909-0.914z" fill="#fd0707" data-fill-palette-color="accent"></path><path d="M42.004 214.705v0l4.622 5.805c0.263 0.33 0.372 0.695 0.326 1.094-0.045 0.399-0.233 0.729-0.563 0.992v0c-0.314 0.25-0.665 0.348-1.053 0.294-0.393-0.05-0.721-0.239-0.984-0.57v0l-4.621-5.806c-0.263-0.33-0.372-0.695-0.327-1.093 0.045-0.399 0.225-0.723 0.539-0.973v0c0.33-0.263 0.692-0.369 1.085-0.32 0.388 0.054 0.713 0.246 0.976 0.577zM47.282 214.735v0c0.289 0.363 0.407 0.755 0.354 1.178-0.063 0.421-0.273 0.774-0.63 1.058v0l-11.466 9.127c-0.298 0.237-0.495 0.478-0.592 0.723-0.106 0.244-0.123 0.478-0.05 0.704 0.073 0.225 0.18 0.427 0.323 0.605v0c0.147 0.184 0.308 0.321 0.485 0.41 0.173 0.084 0.339 0.226 0.498 0.425v0c0.155 0.195 0.21 0.447 0.165 0.758-0.055 0.309-0.239 0.588-0.553 0.838v0c-0.395 0.315-0.885 0.355-1.469 0.121-0.589-0.229-1.08-0.59-1.472-1.083v0c-0.224-0.281-0.463-0.631-0.716-1.049-0.253-0.418-0.419-0.882-0.499-1.393-0.09-0.512-0.006-1.057 0.252-1.633 0.253-0.582 0.775-1.187 1.566-1.817v0l11.563-9.204c0.357-0.284 0.753-0.404 1.185-0.36 0.428 0.049 0.78 0.246 1.056 0.592z" fill="#fd0707" data-fill-palette-color="accent"></path><path d="M51.933 228.28l-9.844 9.258c-0.338 0.318-0.719 0.472-1.145 0.464-0.421-0.003-0.79-0.174-1.108-0.511v0c-0.303-0.323-0.448-0.699-0.435-1.13 0.013-0.43 0.189-0.804 0.526-1.121v0l9.844-9.258c0.338-0.318 0.722-0.47 1.152-0.457 0.435 0.008 0.805 0.174 1.108 0.497v0c0.318 0.338 0.463 0.719 0.435 1.144-0.018 0.425-0.196 0.797-0.533 1.114zM53.522 224.577v0c-0.417-0.444-0.64-0.842-0.668-1.195-0.028-0.353 0.149-0.71 0.532-1.07v0l0.37-0.349c0.383-0.36 0.755-0.505 1.115-0.436 0.355 0.075 0.734 0.326 1.137 0.755v0c0.431 0.459 0.661 0.865 0.69 1.218 0.024 0.348-0.149 0.695-0.517 1.041v0l-0.37 0.349c-0.398 0.374-0.77 0.529-1.116 0.465-0.351-0.06-0.742-0.319-1.173-0.778z" fill="#fd0707" data-fill-palette-color="accent"></path><path d="M57.332 230.964v0c0.243 0.205 0.418 0.465 0.523 0.78 0.11 0.31 0.106 0.637-0.011 0.98v0l-3.595 11.953-0.648-0.165 11.391-5.727c0.678-0.343 1.259-0.297 1.743 0.138v0c0.323 0.272 0.508 0.6 0.555 0.984 0.048 0.384-0.065 0.737-0.336 1.06v0c-0.085 0.101-0.185 0.188-0.302 0.262-0.121 0.079-0.245 0.146-0.373 0.201v0l-13.3 6.479c-0.617 0.303-1.18 0.268-1.688-0.106v0c-0.27-0.173-0.464-0.427-0.581-0.76-0.117-0.334-0.125-0.689-0.025-1.066v0l4.147-14.188c0.022-0.09 0.059-0.204 0.111-0.341 0.053-0.127 0.142-0.265 0.266-0.413v0c0.201-0.238 0.512-0.388 0.934-0.448 0.427-0.056 0.824 0.069 1.189 0.377z" fill="#fd0707" data-fill-palette-color="accent"></path><path d="M82.735 248.901v0c0.378 0.231 0.617 0.556 0.718 0.975 0.101 0.419 0.03 0.826-0.212 1.221v0l-7.127 11.639c-0.242 0.395-0.572 0.643-0.991 0.744-0.419 0.101-0.817 0.035-1.194-0.195v0c-0.395-0.242-0.637-0.569-0.727-0.981-0.095-0.415-0.021-0.82 0.221-1.215v0l1.187-1.939 0.491 0.411c-0.199 0.325-0.549 0.605-1.05 0.841-0.502 0.236-1.089 0.4-1.762 0.492-0.672 0.091-1.39 0.07-2.151-0.064-0.756-0.13-1.485-0.41-2.187-0.84v0c-1.239-0.759-2.156-1.758-2.752-2.999-0.601-1.244-0.848-2.596-0.741-4.057 0.11-1.466 0.599-2.907 1.466-4.323v0c0.892-1.458 1.963-2.563 3.211-3.315 1.248-0.753 2.553-1.142 3.915-1.168 1.366-0.032 2.651 0.321 3.855 1.058v0c0.773 0.473 1.409 1.037 1.909 1.692 0.503 0.649 0.876 1.319 1.118 2.011 0.242 0.692 0.363 1.342 0.363 1.95-0.002 0.599-0.124 1.097-0.366 1.492v0l-0.88-0.43 1.501-2.452c0.228-0.372 0.551-0.616 0.971-0.731 0.414-0.12 0.819-0.059 1.214 0.183zM69.781 257.715v0c0.85 0.52 1.727 0.757 2.632 0.711 0.901-0.041 1.756-0.324 2.565-0.851 0.815-0.523 1.503-1.242 2.063-2.157v0c0.571-0.932 0.902-1.878 0.994-2.835 0.098-0.954-0.04-1.842-0.414-2.663-0.374-0.821-0.985-1.492-1.835-2.012v0c-0.82-0.502-1.687-0.737-2.599-0.703-0.913 0.033-1.772 0.31-2.578 0.831-0.812 0.517-1.503 1.242-2.074 2.174v0c-0.56 0.915-0.888 1.854-0.983 2.818-0.101 0.96 0.035 1.851 0.409 2.672 0.37 0.827 0.977 1.499 1.82 2.015z" fill="#fd0707" data-fill-palette-color="accent"></path><path d="M88.445 252.168v0l6.814 2.939c0.388 0.167 0.655 0.437 0.804 0.81 0.148 0.373 0.139 0.753-0.029 1.141v0c-0.159 0.368-0.422 0.62-0.789 0.756-0.37 0.142-0.749 0.129-1.137-0.039v0l-6.814-2.939c-0.388-0.167-0.655-0.437-0.803-0.81-0.148-0.373-0.143-0.744 0.016-1.112v0c0.167-0.388 0.436-0.652 0.806-0.794 0.367-0.135 0.745-0.12 1.132 0.048zM93.113 249.705v0c0.426 0.184 0.715 0.474 0.868 0.872 0.144 0.401 0.125 0.811-0.056 1.23v0l-5.805 13.457c-0.151 0.349-0.211 0.655-0.18 0.916 0.021 0.265 0.117 0.48 0.287 0.644 0.17 0.164 0.36 0.291 0.57 0.382v0c0.216 0.093 0.423 0.137 0.621 0.132 0.192-0.008 0.405 0.039 0.641 0.141v0c0.229 0.099 0.396 0.295 0.502 0.59 0.097 0.298 0.067 0.632-0.092 1v0c-0.2 0.464-0.613 0.73-1.238 0.799-0.628 0.076-1.231-0.011-1.809-0.26v0c-0.33-0.142-0.706-0.338-1.126-0.587-0.42-0.249-0.786-0.58-1.097-0.994-0.321-0.41-0.503-0.929-0.548-1.559-0.051-0.632 0.123-1.412 0.523-2.34v0l5.853-13.57c0.181-0.419 0.473-0.712 0.876-0.877 0.4-0.159 0.803-0.151 1.21 0.024z" fill="#fd0707" data-fill-palette-color="accent"></path><path d="M103.603 259.454l-4.311 12.807c-0.148 0.439-0.411 0.756-0.79 0.949-0.373 0.196-0.778 0.22-1.218 0.072v0c-0.42-0.141-0.725-0.405-0.917-0.79-0.191-0.386-0.213-0.798-0.065-1.238v0l4.311-12.807c0.148-0.439 0.415-0.755 0.801-0.946 0.388-0.198 0.792-0.226 1.211-0.085v0c0.439 0.148 0.747 0.416 0.923 0.804 0.185 0.383 0.203 0.795 0.055 1.234zM103.258 255.439v0c-0.577-0.194-0.961-0.44-1.153-0.739-0.192-0.298-0.204-0.696-0.036-1.194v0l0.162-0.482c0.168-0.498 0.427-0.802 0.777-0.911 0.348-0.102 0.801-0.059 1.359 0.129v0c0.597 0.201 0.991 0.45 1.182 0.749 0.185 0.296 0.197 0.683 0.036 1.162v0l-0.162 0.482c-0.174 0.518-0.429 0.83-0.764 0.936-0.337 0.113-0.804 0.069-1.401-0.132z" fill="#fd0707" data-fill-palette-color="accent"></path><path d="M122.974 270.655v0c-0.339 1.647-1.006 3.028-1.998 4.145-0.993 1.116-2.181 1.91-3.564 2.381-1.388 0.463-2.855 0.535-4.4 0.216v0c-1.525-0.314-2.837-0.959-3.935-1.934-1.097-0.982-1.882-2.182-2.353-3.6-0.471-1.418-0.536-2.95-0.197-4.598v0c0.345-1.674 1.014-3.069 2.007-4.185 0.993-1.116 2.188-1.912 3.587-2.387 1.398-0.475 2.859-0.555 4.383-0.241v0c1.545 0.318 2.862 0.971 3.952 1.959 1.083 0.986 1.859 2.188 2.33 3.606 0.471 1.418 0.534 2.964 0.188 4.638zM119.884 270.018v0c0.235-1.138 0.211-2.171-0.071-3.098-0.282-0.927-0.759-1.714-1.432-2.362-0.673-0.64-1.495-1.06-2.463-1.26v0c-0.949-0.196-1.859-0.132-2.731 0.19-0.873 0.329-1.629 0.862-2.269 1.599-0.633 0.739-1.066 1.677-1.3 2.815v0c-0.225 1.091-0.194 2.108 0.092 3.05 0.293 0.943 0.777 1.732 1.451 2.365 0.675 0.634 1.487 1.048 2.436 1.244v0c0.969 0.2 1.889 0.142 2.759-0.173 0.87-0.315 1.62-0.85 2.248-1.603 0.629-0.754 1.055-1.676 1.28-2.767z" fill="#fd0707" data-fill-palette-color="accent"></path><path d="M137.381 262.821v0c1.493 0.076 2.631 0.446 3.415 1.109 0.791 0.664 1.322 1.522 1.594 2.576 0.272 1.06 0.375 2.229 0.309 3.507v0l-0.43 8.458c-0.024 0.463-0.195 0.839-0.515 1.127-0.32 0.289-0.7 0.422-1.142 0.4v0c-0.463-0.024-0.832-0.195-1.107-0.514-0.282-0.319-0.411-0.71-0.387-1.173v0l0.429-8.427c0.038-0.753-0.031-1.436-0.208-2.048-0.184-0.612-0.522-1.114-1.014-1.506-0.5-0.393-1.212-0.613-2.139-0.66v0c-0.864-0.044-1.63 0.101-2.298 0.434-0.668 0.333-1.204 0.791-1.607 1.373-0.397 0.583-0.614 1.25-0.653 2.004v0l-0.429 8.427c-0.024 0.463-0.195 0.839-0.515 1.127-0.32 0.289-0.7 0.422-1.142 0.399v0c-0.463-0.024-0.832-0.195-1.107-0.514-0.282-0.319-0.411-0.71-0.387-1.173v0l0.68-13.371c0.024-0.463 0.192-0.839 0.505-1.128 0.306-0.289 0.69-0.422 1.153-0.398v0c0.442 0.023 0.808 0.194 1.096 0.513 0.289 0.32 0.421 0.711 0.397 1.174v0l-0.089 1.762-0.587 0.292c0.176-0.455 0.459-0.912 0.849-1.37 0.39-0.451 0.858-0.871 1.405-1.259 0.546-0.381 1.153-0.676 1.822-0.884 0.662-0.209 1.362-0.294 2.102-0.257z" fill="#fd0707" data-fill-palette-color="accent"></path><path d="M148.615 277.057v0c-0.223-0.276-0.344-0.608-0.362-0.996-0.019-0.394 0.167-0.747 0.559-1.058v0c0.276-0.223 0.578-0.334 0.905-0.333 0.327 0.001 0.653 0.131 0.979 0.391v0c0.651 0.587 1.357 1.033 2.119 1.338 0.761 0.305 1.655 0.405 2.681 0.3v0c0.418-0.064 0.841-0.176 1.269-0.339 0.429-0.162 0.782-0.41 1.061-0.744 0.286-0.335 0.399-0.795 0.339-1.381v0c-0.053-0.523-0.265-0.926-0.635-1.208-0.362-0.276-0.829-0.486-1.399-0.629-0.564-0.144-1.168-0.267-1.811-0.368v0c-0.687-0.125-1.383-0.266-2.088-0.423-0.705-0.164-1.349-0.401-1.93-0.711-0.581-0.309-1.077-0.739-1.488-1.287-0.405-0.557-0.651-1.262-0.737-2.116v0c-0.101-0.984 0.091-1.863 0.575-2.635 0.485-0.766 1.151-1.394 1.999-1.884 0.847-0.49 1.794-0.788 2.84-0.895v0c0.613-0.063 1.261-0.049 1.945 0.041 0.684 0.09 1.359 0.268 2.026 0.534 0.661 0.273 1.25 0.658 1.766 1.155v0c0.235 0.254 0.388 0.565 0.461 0.933 0.066 0.376-0.071 0.731-0.413 1.065v0c-0.234 0.233-0.53 0.357-0.891 0.372-0.353 0.015-0.657-0.068-0.912-0.251v0c-0.451-0.462-1.003-0.802-1.659-1.02-0.655-0.218-1.382-0.287-2.18-0.205v0c-0.399 0.041-0.807 0.138-1.222 0.292-0.415 0.161-0.755 0.404-1.021 0.73-0.266 0.319-0.371 0.761-0.313 1.326v0c0.053 0.523 0.272 0.925 0.655 1.206 0.377 0.281 0.858 0.497 1.443 0.645 0.586 0.156 1.222 0.282 1.906 0.379v0c0.671 0.098 1.338 0.232 2.002 0.401 0.656 0.162 1.261 0.4 1.815 0.712 0.547 0.32 1.015 0.748 1.405 1.286 0.383 0.545 0.619 1.258 0.708 2.139v0c0.105 1.026-0.105 1.93-0.63 2.714-0.525 0.784-1.222 1.412-2.092 1.883-0.871 0.465-1.808 0.748-2.814 0.851v0c-1.198 0.122-2.41 0.031-3.638-0.275-1.228-0.306-2.302-0.951-3.223-1.935z" fill="#fd0707" data-fill-palette-color="accent"></path><path d="M185.243 248.609v0c0.379-0.131 0.772-0.105 1.179 0.076 0.407 0.182 0.686 0.492 0.837 0.93v0c0.056 0.164 0.087 0.325 0.091 0.485 0 0.168-0.021 0.351-0.064 0.549v0l-3.504 12.023-0.125-1.922 3.141 9.105c0.151 0.438 0.126 0.853-0.075 1.245-0.202 0.392-0.489 0.652-0.862 0.78v0c-0.419 0.144-0.821 0.122-1.209-0.066-0.394-0.186-0.666-0.498-0.817-0.937v0l-3.06-8.869 0.514 0.789-9.639-6.523c-0.234-0.168-0.413-0.337-0.537-0.506-0.122-0.163-0.215-0.336-0.278-0.519v0c-0.151-0.438-0.101-0.855 0.151-1.249 0.25-0.401 0.554-0.663 0.914-0.787v0c0.477-0.165 0.965-0.077 1.463 0.263v0l8.789 6.125-0.747 0.159 2.83-10.001c0.175-0.595 0.512-0.978 1.008-1.15z" fill="#fd0707" data-fill-palette-color="accent"></path><path d="M208.365 252.454v0c0.771 1.494 1.122 2.987 1.052 4.479-0.07 1.492-0.495 2.857-1.275 4.092-0.789 1.233-1.884 2.211-3.285 2.935v0c-1.383 0.714-2.809 1.038-4.277 0.97-1.471-0.074-2.835-0.514-4.093-1.321-1.258-0.807-2.272-1.957-3.043-3.451v0c-0.784-1.519-1.141-3.024-1.071-4.517 0.07-1.492 0.5-2.863 1.289-4.111 0.788-1.248 1.874-2.229 3.257-2.943v0c1.402-0.724 2.837-1.044 4.305-0.961 1.462 0.086 2.821 0.533 4.079 1.34 1.258 0.807 2.278 1.97 3.062 3.488zM205.562 253.901v0c-0.533-1.033-1.201-1.821-2.004-2.364-0.802-0.544-1.668-0.856-2.597-0.937-0.926-0.075-1.829 0.115-2.709 0.569v0c-0.861 0.444-1.529 1.066-2.004 1.864-0.472 0.805-0.725 1.694-0.759 2.67-0.028 0.972 0.225 1.975 0.758 3.007v0c0.511 0.99 1.174 1.761 1.989 2.314 0.821 0.549 1.693 0.858 2.616 0.927 0.923 0.068 1.815-0.119 2.676-0.564v0c0.879-0.454 1.558-1.077 2.037-1.869 0.479-0.792 0.726-1.679 0.741-2.66 0.015-0.981-0.233-1.967-0.744-2.957z" fill="#fd0707" data-fill-palette-color="accent"></path><path d="M217.98 235.379v0c0.358-0.26 0.75-0.356 1.175-0.289 0.425 0.068 0.774 0.289 1.046 0.665v0l4.876 6.72c1.284 1.77 1.792 3.513 1.524 5.229-0.262 1.712-1.298 3.224-3.107 4.536v0c-1.787 1.296-3.531 1.801-5.235 1.516-1.703-0.286-3.197-1.314-4.481-3.083v0l-4.876-6.721c-0.272-0.375-0.377-0.773-0.315-1.194 0.056-0.417 0.272-0.762 0.648-1.034v0c0.358-0.26 0.75-0.356 1.175-0.289 0.425 0.068 0.774 0.289 1.046 0.664v0l4.876 6.721c0.805 1.109 1.664 1.746 2.579 1.911 0.915 0.165 1.874-0.116 2.876-0.843v0c1.025-0.744 1.603-1.578 1.736-2.503 0.138-0.929-0.195-1.948-1-3.057v0l-4.876-6.721c-0.272-0.375-0.38-0.771-0.323-1.188 0.062-0.421 0.281-0.768 0.655-1.04z" fill="#fd0707" data-fill-palette-color="accent"></path><path d="M235.715 241.644v0c-0.333 0.323-0.71 0.476-1.13 0.459-0.426-0.011-0.8-0.184-1.122-0.516v0l-9.319-9.613c-0.323-0.333-0.483-0.712-0.481-1.138-0.003-0.421 0.162-0.793 0.494-1.115v0c0.318-0.308 0.692-0.459 1.123-0.453 0.43 0.007 0.807 0.176 1.129 0.51v0l2.464 2.541-1.17-0.76c-0.295-0.543-0.494-1.116-0.597-1.719-0.098-0.608-0.103-1.215-0.016-1.821 0.083-0.61 0.263-1.2 0.541-1.767 0.288-0.568 0.665-1.078 1.132-1.532v0c0.392-0.38 0.836-0.604 1.332-0.669 0.49-0.071 0.89 0.053 1.198 0.371v0c0.395 0.407 0.577 0.809 0.546 1.205-0.026 0.391-0.168 0.712-0.426 0.962v0c-0.229 0.222-0.493 0.386-0.793 0.494-0.31 0.108-0.609 0.301-0.897 0.581v0c-0.313 0.303-0.556 0.698-0.73 1.185-0.169 0.492-0.234 1.031-0.194 1.619 0.045 0.593 0.199 1.185 0.464 1.776 0.265 0.591 0.662 1.16 1.192 1.707v0l5.273 5.44c0.323 0.333 0.481 0.715 0.474 1.145-0.007 0.43-0.169 0.8-0.487 1.108z" fill="#fd0707" data-fill-palette-color="accent"></path><path d="M243.177 230.14v0c-0.353-0.035-0.675-0.181-0.964-0.44-0.295-0.263-0.416-0.643-0.363-1.141v0c0.035-0.353 0.167-0.646 0.397-0.878 0.23-0.232 0.552-0.374 0.965-0.425v0c0.875-0.053 1.688-0.244 2.439-0.574 0.751-0.33 1.449-0.897 2.093-1.701v0c0.247-0.343 0.464-0.723 0.648-1.143 0.185-0.419 0.256-0.846 0.213-1.279-0.039-0.439-0.288-0.842-0.747-1.209v0c-0.411-0.329-0.846-0.46-1.307-0.394-0.451 0.065-0.927 0.251-1.429 0.557-0.498 0.301-1.009 0.646-1.532 1.034v0c-0.571 0.403-1.159 0.801-1.765 1.193-0.612 0.388-1.231 0.681-1.86 0.879-0.628 0.198-1.282 0.251-1.961 0.158-0.681-0.102-1.356-0.42-2.026-0.956v0c-0.773-0.618-1.265-1.371-1.476-2.258-0.206-0.883-0.187-1.798 0.057-2.746 0.244-0.948 0.695-1.832 1.352-2.653v0c0.385-0.481 0.849-0.934 1.392-1.358 0.544-0.425 1.144-0.782 1.801-1.072 0.658-0.28 1.345-0.43 2.062-0.45v0c0.346 0.011 0.675 0.119 0.989 0.326 0.314 0.216 0.471 0.563 0.47 1.04v0c0.002 0.33-0.117 0.628-0.359 0.897-0.237 0.263-0.51 0.421-0.818 0.475v0c-0.645-0.002-1.275 0.154-1.89 0.468-0.615 0.314-1.173 0.785-1.675 1.411v0c-0.251 0.313-0.467 0.672-0.648 1.077-0.176 0.408-0.241 0.822-0.195 1.24 0.041 0.414 0.283 0.798 0.726 1.152v0c0.411 0.329 0.85 0.454 1.32 0.378 0.465-0.071 0.955-0.264 1.471-0.577 0.522-0.309 1.057-0.674 1.607-1.094v0c0.54-0.409 1.103-0.792 1.689-1.147 0.576-0.354 1.169-0.62 1.78-0.796 0.612-0.166 1.245-0.2 1.901-0.1 0.657 0.109 1.331 0.44 2.023 0.993v0c0.805 0.644 1.303 1.428 1.494 2.352 0.191 0.924 0.15 1.861-0.124 2.813-0.279 0.947-0.734 1.814-1.365 2.603v0c-0.752 0.94-1.668 1.741-2.746 2.402-1.078 0.661-2.291 0.976-3.639 0.943z" fill="#fd0707" data-fill-palette-color="accent"></path><path d="M260.807 209.963v0c-0.876 1.483-1.956 2.597-3.241 3.341-1.287 0.75-2.657 1.102-4.108 1.057-1.455-0.04-2.889-0.477-4.3-1.311v0c-1.596-0.943-2.771-2.071-3.522-3.384-0.752-1.312-1.123-2.669-1.115-4.07 0.008-1.401 0.354-2.68 1.037-3.836v0c0.514-0.87 1.186-1.606 2.016-2.208 0.833-0.593 1.745-1.014 2.736-1.264 0.988-0.244 2.009-0.3 3.064-0.167 1.061 0.136 2.094 0.49 3.099 1.06v0c0.353 0.233 0.564 0.555 0.635 0.965 0.076 0.415 0.009 0.801-0.203 1.159v0l-6.235 10.552-2.7-0.715 6.04-10.222 0.186 0.809-0.68-0.401c-0.663-0.319-1.349-0.431-2.056-0.335-0.708 0.096-1.355 0.341-1.94 0.734-0.589 0.399-1.067 0.908-1.434 1.528v0c-0.32 0.542-0.544 1.117-0.67 1.725-0.126 0.608-0.112 1.216 0.045 1.823 0.156 0.607 0.476 1.214 0.961 1.821 0.488 0.602 1.194 1.176 2.117 1.721v0c0.995 0.588 1.988 0.893 2.978 0.917 0.991 0.023 1.897-0.197 2.718-0.661 0.83-0.466 1.502-1.134 2.015-2.004v0c0.387-0.655 0.641-1.241 0.761-1.756 0.12-0.516 0.163-0.977 0.13-1.383-0.024-0.408-0.063-0.777-0.118-1.106v0c0.008-0.381 0.088-0.7 0.239-0.956v0c0.194-0.328 0.467-0.532 0.82-0.612 0.357-0.087 0.69-0.038 0.999 0.145v0c0.399 0.236 0.645 0.65 0.737 1.242v0c0.178 0.772 0.196 1.695 0.052 2.768-0.153 1.075-0.508 2.083-1.063 3.024z" fill="#fd0707" data-fill-palette-color="accent"></path><path d="M248.423 185.864l18.327 8.363c0.422 0.192 0.706 0.493 0.854 0.903 0.151 0.403 0.134 0.806-0.05 1.209v0c-0.181 0.397-0.475 0.673-0.881 0.83-0.403 0.151-0.816 0.13-1.237-0.063v0l-18.327-8.362c-0.422-0.192-0.705-0.497-0.85-0.913-0.151-0.419-0.135-0.83 0.049-1.232v0c0.19-0.415 0.486-0.691 0.89-0.826 0.395-0.132 0.803-0.101 1.225 0.091z" fill="#fd0707" data-fill-palette-color="accent"></path><path d="M251.107 173.093v0c0.125-0.381 0.307-0.755 0.544-1.122 0.231-0.368 0.505-0.65 0.824-0.843 0.319-0.194 0.679-0.225 1.08-0.093v0c0.401 0.132 0.687 0.357 0.859 0.676 0.17 0.325 0.202 0.649 0.095 0.972v0c-0.065 0.197-0.2 0.451-0.404 0.763-0.202 0.305-0.36 0.628-0.472 0.97v0c-0.151 0.46-0.168 0.866-0.051 1.217 0.119 0.345 0.313 0.631 0.581 0.858 0.27 0.22 0.556 0.38 0.858 0.479v0l15.961 5.254c0.44 0.145 0.758 0.41 0.951 0.794 0.194 0.384 0.222 0.787 0.084 1.207v0c-0.145 0.44-0.408 0.754-0.791 0.942-0.38 0.181-0.79 0.199-1.231 0.054v0l-15.931-5.244c-1.38-0.454-2.361-1.28-2.943-2.477-0.58-1.203-0.584-2.673-0.014-4.407zM255.413 182.453l2.557-7.768c0.132-0.401 0.373-0.69 0.722-0.866 0.341-0.172 0.711-0.192 1.112-0.06v0c0.401 0.132 0.687 0.368 0.859 0.709 0.176 0.349 0.199 0.725 0.067 1.125v0l-2.557 7.769c-0.125 0.381-0.364 0.663-0.715 0.846-0.345 0.185-0.718 0.212-1.119 0.08v0c-0.401-0.132-0.685-0.375-0.853-0.729-0.174-0.356-0.199-0.725-0.073-1.106z" fill="#fd0707" data-fill-palette-color="accent"></path><path d="M0.239 140.012c0-4.93 3.997-8.927 8.928-8.928 4.93 0 8.927 3.997 8.927 8.928 0 4.93-3.997 8.927-8.927 8.927-4.93 0-8.927-3.997-8.928-8.927z" fill="#fd0707" data-fill-palette-color="accent"></path><path d="M261.786 140.012c0-4.93 3.997-8.927 8.928-8.928 4.93 0 8.927 3.997 8.927 8.928 0 4.93-3.997 8.927-8.927 8.927-4.93 0-8.927-3.997-8.928-8.927z" fill="#fd0707" data-fill-palette-color="accent"></path></g></svg></g><defs></defs></svg><rect width="280" height="280" fill="none" stroke="none" visibility="hidden"></rect></g></svg></g></svg>